<svg width="640" height="21" viewBox="0 0 640 21" fill="none" xmlns="http://www.w3.org/2000/svg">
<path d="M6.16793 16.6088C0.863932 16.6088 -6.82771e-05 15.8168 -6.82771e-05 12.0248V11.3528H1.87193V11.9288C1.87193 14.4728 2.47193 15.0248 6.04793 15.0248H6.50393C9.69593 15.0248 10.3199 14.5448 10.3199 12.0728V11.7368C10.3199 9.72084 9.91193 9.24084 5.85593 8.92884C1.15193 8.56884 0.167932 7.60884 0.167932 4.63284V4.24884C0.167932 1.08084 1.29593 0.000842571 5.59193 0.000842571H6.07193C10.9919 0.000842571 11.9039 0.984843 11.9039 4.48884V5.01684H10.0079V4.58484C10.0079 2.16084 9.45593 1.56084 6.16793 1.56084H5.75993C2.71193 1.56084 2.11193 2.06484 2.11193 4.27284V4.60884C2.11193 6.43284 2.61593 6.93684 6.50393 7.24884C11.3519 7.63284 12.2879 8.56884 12.2879 11.6168V12.0008C12.2879 15.6728 11.1119 16.6088 6.71993 16.6088H6.16793ZM15.0993 2.25684V0.144844H16.9473V2.25684H15.0993ZM15.0993 16.4648V4.94484H16.9473V16.4648H15.0993ZM24.3161 20.6888C20.8361 20.6888 19.8761 20.0648 19.8761 17.2808V16.9928H21.6041V17.2088C21.6041 18.8408 22.0121 19.2248 24.3161 19.2248H24.7241C27.5801 19.2248 27.8921 18.9128 27.8921 15.7928V14.1608H27.8441C27.3401 15.3848 26.4041 15.8888 24.1481 15.8888H23.8841C20.7401 15.8888 19.6601 14.8328 19.6601 10.7048V10.1768C19.6601 5.90484 20.7401 4.80084 23.8841 4.80084H24.1721C26.3081 4.80084 27.3161 5.23284 27.8921 6.52884H27.9161V4.94484H29.7161V15.6728C29.7161 19.9928 28.7801 20.6888 24.7241 20.6888H24.3161ZM24.4361 14.4488H24.7481C27.3641 14.4488 27.9161 13.7528 27.9161 10.7048V10.1528C27.9161 6.93684 27.3401 6.24084 24.7721 6.24084H24.4361C22.0841 6.24084 21.4841 6.93684 21.4841 10.1528V10.7048C21.4841 13.7528 22.1321 14.4488 24.4361 14.4488ZM32.8181 16.4648V4.94484H34.6421V6.79284H34.6661C35.1701 5.49684 36.0581 4.80084 38.4341 4.80084H38.6501C41.8661 4.80084 42.7061 5.68884 42.7061 9.21684V16.4648H40.8581V9.69684C40.8581 6.81684 40.4741 6.28884 38.0501 6.28884H37.8101C35.6261 6.28884 34.6661 6.93684 34.6661 9.69684V16.4648H32.8181ZM55.5732 16.6088C52.4052 16.6088 51.5172 15.6488 51.5172 12.1208V4.94484H53.3652V11.6648C53.3652 14.5928 53.7972 15.1448 56.1732 15.1448H56.3892C58.5972 15.1448 59.5572 14.5208 59.5572 11.7128V4.94484H61.4052V16.4648H59.5812V14.5928H59.5572C59.0532 15.8888 58.1412 16.6088 55.7892 16.6088H55.5732ZM64.529 20.5448V4.94484H66.329V6.50484H66.377C66.857 5.23284 67.937 4.80084 70.025 4.80084H70.337C73.625 4.80084 74.657 5.88084 74.657 10.3688V10.9688C74.657 15.4808 73.625 16.6088 70.313 16.6088H70.073C67.913 16.6088 66.953 16.1768 66.425 14.8088H66.377V20.5448H64.529ZM69.449 15.1208H69.785C72.209 15.1208 72.809 14.4728 72.809 11.0168V10.3448C72.809 6.91284 72.209 6.24084 69.785 6.24084H69.449C67.001 6.24084 66.329 6.86484 66.329 10.0088V11.3528C66.329 14.3768 66.953 15.1208 69.449 15.1208ZM83.5664 16.4648V6.31284H82.1024V4.94484H83.5664V3.88884C83.5664 0.864843 84.4544 0.0248423 86.9744 0.0248423C87.5264 0.0248423 88.0784 0.0488434 88.6064 0.120842V1.48884C88.2224 1.44084 87.7904 1.41684 87.4064 1.41684C85.7984 1.41684 85.4144 1.80084 85.4144 3.98484V4.94484H88.1024V6.31284H85.4144V16.4648H83.5664ZM94.1666 16.6088C90.3266 16.6088 89.2226 15.4568 89.2226 11.0888V10.2968C89.2226 5.97684 90.3266 4.80084 94.1666 4.80084H94.5746C98.4146 4.80084 99.5186 5.97684 99.5186 10.2968V11.0888C99.5186 15.4568 98.4146 16.6088 94.5746 16.6088H94.1666ZM94.2146 15.1448H94.5266C97.1666 15.1448 97.6946 14.4488 97.6946 11.0888V10.2968C97.6946 6.93684 97.1666 6.24084 94.5266 6.24084H94.2146C91.5746 6.24084 91.0466 6.93684 91.0466 10.2968V11.0888C91.0466 14.4488 91.5746 15.1448 94.2146 15.1448ZM102.24 16.4648V4.94484H104.04V6.96084H104.088C104.544 5.47284 105.432 4.80084 107.4 4.80084H107.568C110.16 4.80084 110.688 5.64084 110.688 8.25684V9.26484H109.056V8.66484C109.056 6.74484 108.696 6.33684 106.872 6.33684H106.68C105.024 6.33684 104.088 7.00884 104.088 9.93684V16.4648H102.24ZM123.252 16.6088C119.412 16.6088 118.308 15.4568 118.308 11.0888V10.2968C118.308 5.97684 119.412 4.80084 123.252 4.80084H123.66C127.5 4.80084 128.604 5.97684 128.604 10.2968V11.0888C128.604 15.4568 127.5 16.6088 123.66 16.6088H123.252ZM123.3 15.1448H123.612C126.252 15.1448 126.78 14.4488 126.78 11.0888V10.2968C126.78 6.93684 126.252 6.24084 123.612 6.24084H123.3C120.66 6.24084 120.132 6.93684 120.132 10.2968V11.0888C120.132 14.4488 120.66 15.1448 123.3 15.1448ZM135.214 16.6088C132.046 16.6088 131.158 15.6488 131.158 12.1208V4.94484H133.006V11.6648C133.006 14.5928 133.438 15.1448 135.814 15.1448H136.03C138.238 15.1448 139.198 14.5208 139.198 11.7128V4.94484H141.046V16.4648H139.222V14.5928H139.198C138.694 15.8888 137.782 16.6088 135.43 16.6088H135.214ZM144.17 16.4648V4.94484H145.97V6.96084H146.018C146.474 5.47284 147.362 4.80084 149.33 4.80084H149.498C152.09 4.80084 152.618 5.64084 152.618 8.25684V9.26484H150.986V8.66484C150.986 6.74484 150.626 6.33684 148.802 6.33684H148.61C146.954 6.33684 146.018 7.00884 146.018 9.93684V16.4648H144.17ZM165.062 16.6088C161.174 16.6088 160.238 15.6008 160.238 11.0888V10.3448C160.238 5.76084 161.294 4.80084 164.99 4.80084H165.374C169.07 4.80084 170.006 5.78484 170.006 9.57684V10.9448H162.038V11.3528C162.038 14.5448 162.542 15.1448 165.158 15.1448H165.47C167.822 15.1448 168.35 14.6888 168.35 12.7928V12.5768H170.078V12.8408C170.078 15.7448 168.854 16.6088 165.494 16.6088H165.062ZM162.014 9.69684H168.254V9.28884C168.254 6.76884 167.846 6.19284 165.35 6.19284H165.086C162.518 6.19284 162.062 6.69684 162.014 9.69684ZM172.787 16.4648V4.94484H174.611V6.79284H174.635C175.067 5.54484 176.099 4.80084 178.115 4.80084H178.355C180.731 4.80084 181.571 5.49684 181.883 6.98484H181.907C182.363 5.61684 183.491 4.80084 185.555 4.80084H185.795C188.819 4.80084 189.587 5.73684 189.587 9.16884V16.4648H187.739V9.67284C187.739 6.76884 187.331 6.28884 185.171 6.28884H184.955C183.059 6.28884 182.123 6.88884 182.123 9.67284V16.4648H180.275V9.67284C180.275 6.74484 179.771 6.28884 177.755 6.28884H177.515C175.523 6.28884 174.635 6.96084 174.635 9.67284V16.4648H172.787ZM196.215 16.6088C193.047 16.6088 192.207 15.8648 192.207 13.1528V12.8168C192.207 10.2008 193.239 9.43284 196.143 9.43284H196.383C198.519 9.43284 199.407 9.72084 199.887 10.5368H199.935V9.79284C199.935 6.57684 199.671 6.19284 197.103 6.19284H196.839C194.703 6.19284 194.247 6.57684 194.247 8.06484V8.30484H192.543V8.06484C192.543 5.37684 193.599 4.80084 196.911 4.80084H197.247C201.135 4.80084 201.711 5.49684 201.711 10.0328V16.4648H199.959V15.1688H199.911C199.383 16.2008 198.495 16.6088 196.479 16.6088H196.215ZM196.815 15.2168H197.031C199.263 15.2168 199.959 14.8328 199.959 13.1048V12.8648C199.959 11.0168 199.359 10.7528 196.887 10.7528H196.671C194.415 10.7528 193.959 11.1368 193.959 12.8648V13.0808C193.959 14.8328 194.415 15.2168 196.815 15.2168ZM204.685 2.25684V0.144844H206.533V2.25684H204.685ZM204.685 16.4648V4.94484H206.533V16.4648H204.685ZM209.654 16.4648V0.144844H211.502V16.4648H209.654ZM220.552 16.4648V0.144844H222.4V16.4648H220.552ZM225.521 2.25684V0.144844H227.369V2.25684H225.521ZM225.521 16.4648V4.94484H227.369V16.4648H225.521ZM234.618 16.6088C230.778 16.6088 230.01 15.9368 230.01 13.3208V12.9608H231.738V13.1528C231.738 14.8568 232.122 15.1928 234.618 15.1928H235.17C237.426 15.1928 237.834 14.8328 237.834 13.3208V13.1288C237.834 11.8328 237.474 11.4488 234.426 11.2328C230.994 10.9928 230.226 10.2488 230.226 8.16084V7.87284C230.226 5.56884 231.186 4.80084 234.354 4.80084H234.834C238.434 4.80084 239.25 5.42484 239.25 8.04084V8.30484H237.57V8.11284C237.57 6.52884 237.162 6.19284 234.93 6.19284H234.522C232.338 6.19284 231.978 6.55284 231.978 7.87284V8.13684C231.978 9.16884 232.338 9.52884 234.978 9.72084C238.674 9.98484 239.61 10.7528 239.61 12.9608V13.2728C239.61 15.8648 238.554 16.6088 235.218 16.6088H234.618ZM245.904 16.6088C243.264 16.6088 242.592 16.0088 242.592 12.0968V6.31284H240.984V4.94484H242.592V1.94484H244.416V4.94484H249.672V6.31284H244.416V11.9768C244.416 14.8808 244.656 15.1208 246.168 15.1208H246.432C247.992 15.1208 248.208 14.7848 248.208 12.1928V11.2808H249.744V12.5048C249.744 15.9128 249.048 16.6088 246.288 16.6088H245.904ZM263.456 16.6088C261.296 16.6088 260.288 16.1768 259.76 14.8088H259.712V16.4648H257.912V0.144844H259.76V6.50484H259.808C260.288 5.23284 261.32 4.80084 263.408 4.80084H263.72C267.008 4.80084 268.04 5.88084 268.04 10.3688V10.9688C268.04 15.4808 267.008 16.6088 263.696 16.6088H263.456ZM262.832 15.1208H263.168C265.592 15.1208 266.192 14.4728 266.192 11.0168V10.3448C266.192 6.91284 265.592 6.24084 263.168 6.24084H262.832C260.384 6.24084 259.712 6.86484 259.712 10.0088V11.3528C259.712 14.3768 260.336 15.1208 262.832 15.1208ZM275.172 16.6088C271.284 16.6088 270.348 15.6008 270.348 11.0888V10.3448C270.348 5.76084 271.404 4.80084 275.1 4.80084H275.484C279.18 4.80084 280.116 5.78484 280.116 9.57684V10.9448H272.148V11.3528C272.148 14.5448 272.652 15.1448 275.268 15.1448H275.58C277.932 15.1448 278.46 14.6888 278.46 12.7928V12.5768H280.188V12.8408C280.188 15.7448 278.964 16.6088 275.604 16.6088H275.172ZM272.124 9.69684H278.364V9.28884C278.364 6.76884 277.956 6.19284 275.46 6.19284H275.196C272.628 6.19284 272.172 6.69684 272.124 9.69684ZM282.896 16.4648V0.144844H284.744V16.4648H282.896ZM292.401 16.6088C288.561 16.6088 287.457 15.4568 287.457 11.0888V10.2968C287.457 5.97684 288.561 4.80084 292.401 4.80084H292.809C296.649 4.80084 297.753 5.97684 297.753 10.2968V11.0888C297.753 15.4568 296.649 16.6088 292.809 16.6088H292.401ZM292.449 15.1448H292.761C295.401 15.1448 295.929 14.4488 295.929 11.0888V10.2968C295.929 6.93684 295.401 6.24084 292.761 6.24084H292.449C289.809 6.24084 289.281 6.93684 289.281 10.2968V11.0888C289.281 14.4488 289.809 15.1448 292.449 15.1448ZM302.658 16.4648L299.298 4.94484H301.242L303.93 15.0968H304.002L306.714 4.94484H308.826L311.562 15.0968H311.634L314.298 4.94484H316.17L312.81 16.4648H310.314L307.77 6.69684H307.722L305.154 16.4648H302.658ZM327.7 16.6088C325.06 16.6088 324.388 16.0088 324.388 12.0968V6.31284H322.78V4.94484H324.388V1.94484H326.212V4.94484H331.468V6.31284H326.212V11.9768C326.212 14.8808 326.452 15.1208 327.964 15.1208H328.228C329.788 15.1208 330.004 14.7848 330.004 12.1928V11.2808H331.54V12.5048C331.54 15.9128 330.844 16.6088 328.084 16.6088H327.7ZM338.245 16.6088C334.405 16.6088 333.301 15.4568 333.301 11.0888V10.2968C333.301 5.97684 334.405 4.80084 338.245 4.80084H338.653C342.493 4.80084 343.597 5.97684 343.597 10.2968V11.0888C343.597 15.4568 342.493 16.6088 338.653 16.6088H338.245ZM338.293 15.1448H338.605C341.245 15.1448 341.773 14.4488 341.773 11.0888V10.2968C341.773 6.93684 341.245 6.24084 338.605 6.24084H338.293C335.653 6.24084 335.125 6.93684 335.125 10.2968V11.0888C335.125 14.4488 335.653 15.1448 338.293 15.1448ZM356.496 20.6888C353.016 20.6888 352.056 20.0648 352.056 17.2808V16.9928H353.784V17.2088C353.784 18.8408 354.192 19.2248 356.496 19.2248H356.904C359.76 19.2248 360.072 18.9128 360.072 15.7928V14.1608H360.024C359.52 15.3848 358.584 15.8888 356.328 15.8888H356.064C352.92 15.8888 351.84 14.8328 351.84 10.7048V10.1768C351.84 5.90484 352.92 4.80084 356.064 4.80084H356.352C358.488 4.80084 359.496 5.23284 360.072 6.52884H360.096V4.94484H361.896V15.6728C361.896 19.9928 360.96 20.6888 356.904 20.6888H356.496ZM356.616 14.4488H356.928C359.544 14.4488 360.096 13.7528 360.096 10.7048V10.1528C360.096 6.93684 359.52 6.24084 356.952 6.24084H356.616C354.264 6.24084 353.664 6.93684 353.664 10.1528V10.7048C353.664 13.7528 354.312 14.4488 356.616 14.4488ZM369.414 16.6088C365.526 16.6088 364.59 15.6008 364.59 11.0888V10.3448C364.59 5.76084 365.646 4.80084 369.342 4.80084H369.726C373.422 4.80084 374.358 5.78484 374.358 9.57684V10.9448H366.39V11.3528C366.39 14.5448 366.894 15.1448 369.51 15.1448H369.822C372.174 15.1448 372.702 14.6888 372.702 12.7928V12.5768H374.43V12.8408C374.43 15.7448 373.206 16.6088 369.846 16.6088H369.414ZM366.366 9.69684H372.606V9.28884C372.606 6.76884 372.198 6.19284 369.702 6.19284H369.438C366.87 6.19284 366.414 6.69684 366.366 9.69684ZM380.786 16.6088C378.146 16.6088 377.474 16.0088 377.474 12.0968V6.31284H375.866V4.94484H377.474V1.94484H379.298V4.94484H384.554V6.31284H379.298V11.9768C379.298 14.8808 379.538 15.1208 381.05 15.1208H381.314C382.874 15.1208 383.09 14.7848 383.09 12.1928V11.2808H384.626V12.5048C384.626 15.9128 383.93 16.6088 381.17 16.6088H380.786ZM392.795 16.4648V4.94484H394.619V6.79284H394.643C395.147 5.49684 396.035 4.80084 398.411 4.80084H398.627C401.843 4.80084 402.683 5.68884 402.683 9.21684V16.4648H400.835V9.69684C400.835 6.81684 400.451 6.28884 398.027 6.28884H397.787C395.603 6.28884 394.643 6.93684 394.643 9.69684V16.4648H392.795ZM410.268 16.6088C406.428 16.6088 405.324 15.4568 405.324 11.0888V10.2968C405.324 5.97684 406.428 4.80084 410.268 4.80084H410.676C414.516 4.80084 415.62 5.97684 415.62 10.2968V11.0888C415.62 15.4568 414.516 16.6088 410.676 16.6088H410.268ZM410.316 15.1448H410.628C413.268 15.1448 413.796 14.4488 413.796 11.0888V10.2968C413.796 6.93684 413.268 6.24084 410.628 6.24084H410.316C407.676 6.24084 407.148 6.93684 407.148 10.2968V11.0888C407.148 14.4488 407.676 15.1448 410.316 15.1448ZM421.989 16.6088C419.349 16.6088 418.677 16.0088 418.677 12.0968V6.31284H417.069V4.94484H418.677V1.94484H420.501V4.94484H425.757V6.31284H420.501V11.9768C420.501 14.8808 420.741 15.1208 422.253 15.1208H422.517C424.077 15.1208 424.293 14.7848 424.293 12.1928V11.2808H425.829V12.5048C425.829 15.9128 425.133 16.6088 422.373 16.6088H421.989ZM428.068 2.25684V0.144844H429.916V2.25684H428.068ZM428.068 16.4648V4.94484H429.916V16.4648H428.068ZM433.301 16.4648V6.31284H431.837V4.94484H433.301V3.88884C433.301 0.864843 434.189 0.0248423 436.709 0.0248423C437.261 0.0248423 437.813 0.0488434 438.341 0.120842V1.48884C437.957 1.44084 437.525 1.41684 437.141 1.41684C435.533 1.41684 435.149 1.80084 435.149 3.98484V4.94484H437.837V6.31284H435.149V16.4648H433.301ZM439.373 2.25684V0.144844H441.221V2.25684H439.373ZM439.373 16.4648V4.94484H441.221V16.4648H439.373ZM448.75 16.6088C444.862 16.6088 443.926 15.6008 443.926 11.0888V10.3448C443.926 5.76084 444.982 4.80084 448.678 4.80084H449.062C452.758 4.80084 453.694 5.78484 453.694 9.57684V10.9448H445.726V11.3528C445.726 14.5448 446.23 15.1448 448.846 15.1448H449.158C451.51 15.1448 452.038 14.6888 452.038 12.7928V12.5768H453.766V12.8408C453.766 15.7448 452.542 16.6088 449.182 16.6088H448.75ZM445.702 9.69684H451.942V9.28884C451.942 6.76884 451.534 6.19284 449.038 6.19284H448.774C446.206 6.19284 445.75 6.69684 445.702 9.69684ZM460.41 16.6088C457.05 16.6088 456.066 15.4088 456.066 10.9688V10.3688C456.066 5.85684 457.146 4.80084 460.362 4.80084H460.698C462.762 4.80084 463.794 5.25684 464.298 6.50484H464.322V0.144844H466.17V16.4648H464.394V14.8088H464.346C463.794 16.1528 462.786 16.6088 460.674 16.6088H460.41ZM460.938 15.1208H461.25C463.746 15.1208 464.394 14.4968 464.394 11.3528V10.0088C464.394 6.98484 463.746 6.24084 461.25 6.24084H460.938C458.538 6.24084 457.914 6.88884 457.914 10.3448V11.0168C457.914 14.4248 458.538 15.1208 460.938 15.1208ZM477.408 16.4648L474.048 4.94484H475.992L478.68 15.0968H478.752L481.464 4.94484H483.576L486.312 15.0968H486.384L489.048 4.94484H490.92L487.56 16.4648H485.064L482.52 6.69684H482.472L479.904 16.4648H477.408ZM492.873 16.4648V0.144844H494.721V6.79284H494.745C495.249 5.49684 496.137 4.80084 498.489 4.80084H498.705C501.921 4.80084 502.761 5.64084 502.761 9.21684V16.4648H500.913V9.67284C500.913 6.79284 500.529 6.28884 498.105 6.28884H497.865C495.657 6.28884 494.721 6.91284 494.721 9.67284V16.4648H492.873ZM510.226 16.6088C506.338 16.6088 505.402 15.6008 505.402 11.0888V10.3448C505.402 5.76084 506.458 4.80084 510.154 4.80084H510.538C514.234 4.80084 515.17 5.78484 515.17 9.57684V10.9448H507.202V11.3528C507.202 14.5448 507.706 15.1448 510.322 15.1448H510.634C512.986 15.1448 513.514 14.6888 513.514 12.7928V12.5768H515.242V12.8408C515.242 15.7448 514.018 16.6088 510.658 16.6088H510.226ZM507.178 9.69684H513.418V9.28884C513.418 6.76884 513.01 6.19284 510.514 6.19284H510.25C507.682 6.19284 507.226 6.69684 507.178 9.69684ZM517.951 16.4648V4.94484H519.775V6.79284H519.799C520.303 5.49684 521.191 4.80084 523.567 4.80084H523.783C526.999 4.80084 527.839 5.68884 527.839 9.21684V16.4648H525.991V9.69684C525.991 6.81684 525.607 6.28884 523.183 6.28884H522.943C520.759 6.28884 519.799 6.93684 519.799 9.69684V16.4648H517.951ZM539.002 16.4648L535.642 4.94484H537.586L540.274 15.0968H540.346L543.058 4.94484H545.17L547.906 15.0968H547.978L550.642 4.94484H552.514L549.154 16.4648H546.658L544.114 6.69684H544.066L541.498 16.4648H539.002ZM558.882 16.6088C554.994 16.6088 554.058 15.6008 554.058 11.0888V10.3448C554.058 5.76084 555.114 4.80084 558.81 4.80084H559.194C562.89 4.80084 563.826 5.78484 563.826 9.57684V10.9448H555.858V11.3528C555.858 14.5448 556.362 15.1448 558.978 15.1448H559.29C561.642 15.1448 562.17 14.6888 562.17 12.7928V12.5768H563.898V12.8408C563.898 15.7448 562.674 16.6088 559.314 16.6088H558.882ZM555.834 9.69684H562.074V9.28884C562.074 6.76884 561.666 6.19284 559.17 6.19284H558.906C556.338 6.19284 555.882 6.69684 555.834 9.69684ZM576.785 20.6888C573.305 20.6888 572.345 20.0648 572.345 17.2808V16.9928H574.073V17.2088C574.073 18.8408 574.481 19.2248 576.785 19.2248H577.193C580.049 19.2248 580.361 18.9128 580.361 15.7928V14.1608H580.313C579.809 15.3848 578.873 15.8888 576.617 15.8888H576.353C573.209 15.8888 572.129 14.8328 572.129 10.7048V10.1768C572.129 5.90484 573.209 4.80084 576.353 4.80084H576.641C578.777 4.80084 579.785 5.23284 580.361 6.52884H580.385V4.94484H582.185V15.6728C582.185 19.9928 581.249 20.6888 577.193 20.6888H576.785ZM576.905 14.4488H577.217C579.833 14.4488 580.385 13.7528 580.385 10.7048V10.1528C580.385 6.93684 579.809 6.24084 577.241 6.24084H576.905C574.553 6.24084 573.953 6.93684 573.953 10.1528V10.7048C573.953 13.7528 574.601 14.4488 576.905 14.4488ZM589.823 16.6088C585.983 16.6088 584.879 15.4568 584.879 11.0888V10.2968C584.879 5.97684 585.983 4.80084 589.823 4.80084H590.231C594.071 4.80084 595.175 5.97684 595.175 10.2968V11.0888C595.175 15.4568 594.071 16.6088 590.231 16.6088H589.823ZM589.871 15.1448H590.183C592.823 15.1448 593.351 14.4488 593.351 11.0888V10.2968C593.351 6.93684 592.823 6.24084 590.183 6.24084H589.871C587.231 6.24084 586.703 6.93684 586.703 10.2968V11.0888C586.703 14.4488 587.231 15.1448 589.871 15.1448ZM603.826 16.4648V0.144844H605.674V16.4648H603.826ZM608.795 2.25684V0.144844H610.643V2.25684H608.795ZM608.795 16.4648V4.94484H610.643V16.4648H608.795ZM616.523 16.4648L612.419 4.94484H614.363L617.771 15.0728H617.819L621.251 4.94484H623.171L619.019 16.4648H616.523ZM629.242 16.6088C625.354 16.6088 624.418 15.6008 624.418 11.0888V10.3448C624.418 5.76084 625.474 4.80084 629.17 4.80084H629.554C633.25 4.80084 634.186 5.78484 634.186 9.57684V10.9448H626.218V11.3528C626.218 14.5448 626.722 15.1448 629.338 15.1448H629.65C632.002 15.1448 632.53 14.6888 632.53 12.7928V12.5768H634.258V12.8408C634.258 15.7448 633.034 16.6088 629.674 16.6088H629.242ZM626.194 9.69684H632.434V9.28884C632.434 6.76884 632.026 6.19284 629.53 6.19284H629.266C626.698 6.19284 626.242 6.69684 626.194 9.69684ZM637.422 12.0248L637.302 0.144844H639.222L639.102 12.0248H637.422ZM637.278 16.4648V13.9448H639.246V16.4648H637.278Z" fill="#6D6559"/>
</svg>
