<svg width="465" height="126" viewBox="0 0 465 126" fill="none" xmlns="http://www.w3.org/2000/svg">
<path d="M14.592 43.5195L3.71337e-05 -0.000469208H13.184L22.656 31.9995H22.784L34.176 -0.000469208H46.272L57.664 31.9995H57.792L67.072 -0.000469208H80.256L65.792 43.5195H50.752L40.256 14.7835H40.128L29.696 43.5195H14.592ZM100.716 44.0315C85.0995 44.0315 80.6195 41.8555 80.6195 28.6075V27.8395C80.6195 14.6555 85.9955 12.2875 99.2435 12.2875H101.42C115.116 12.2875 120.62 14.3995 120.62 25.3435V30.5275H92.2675V31.1675C92.2675 35.9675 93.6755 36.6075 100.78 36.6075H102.06C108.524 36.6075 109.612 35.9675 109.612 33.4075V33.1515H120.748V33.8555C120.748 41.9835 114.924 44.0315 103.02 44.0315H100.716ZM92.2675 24.2555H109.356V23.6795C109.356 20.2875 108.204 19.2635 100.972 19.2635H100.396C93.4835 19.2635 92.2675 20.2875 92.2675 24.2555ZM127.898 43.5195V-0.000469208H139.802V43.5195H127.898ZM166.772 44.0315C151.156 44.0315 146.932 41.4075 146.932 28.4795V27.6475C146.932 14.7835 151.156 12.2875 166.772 12.2875H169.652C184.052 12.2875 187.7 15.1035 187.7 23.6155V25.2795H176.308V24.9595C176.308 21.6315 174.644 20.7995 169.268 20.7995H167.156C159.924 20.7995 158.772 21.6315 158.772 27.6475V28.4795C158.772 34.4955 159.988 35.3275 167.156 35.3275H169.268C175.796 35.3275 176.308 34.0475 176.308 30.9115V30.7195H187.7V32.3835C187.7 40.8315 184.244 44.0315 169.652 44.0315H166.772ZM213.205 44.0315C197.461 44.0315 193.557 41.9835 193.557 28.4795V27.6475C193.557 14.1435 197.589 12.2875 213.205 12.2875H216.085C231.829 12.2875 235.733 14.1435 235.733 27.6475V28.4795C235.733 41.9835 231.829 44.0315 216.085 44.0315H213.205ZM213.589 35.3915H215.701C223.125 35.3915 224.085 34.4955 224.085 28.4795V27.6475C224.085 21.6315 223.125 20.7355 215.701 20.7355H213.589C206.165 20.7355 205.205 21.6315 205.205 27.6475V28.4795C205.205 34.4955 206.165 35.3915 213.589 35.3915ZM242.836 43.5195V12.7995H254.74V17.5995H254.868C256.66 14.9115 259.732 12.2875 266.324 12.2875H267.092C274.58 12.2875 278.484 13.9515 280.404 18.6875H280.468C282.196 14.9755 286.164 12.2875 293.204 12.2875H293.972C305.62 12.2875 308.5 15.4875 308.5 27.3915V43.5195H296.596V28.2235C296.596 22.6555 295.188 21.3755 290.452 21.3755H289.748C282.644 21.3755 281.62 23.1035 281.62 28.2875V43.5195H269.716V28.2235C269.716 22.5275 268.116 21.3755 263.572 21.3755H262.868C255.828 21.3755 254.74 23.0395 254.74 28.2875V43.5195H242.836ZM335.403 44.0315C319.787 44.0315 315.307 41.8555 315.307 28.6075V27.8395C315.307 14.6555 320.683 12.2875 333.931 12.2875H336.107C349.803 12.2875 355.307 14.3995 355.307 25.3435V30.5275H326.955V31.1675C326.955 35.9675 328.363 36.6075 335.467 36.6075H336.747C343.211 36.6075 344.299 35.9675 344.299 33.4075V33.1515H355.435V33.8555C355.435 41.9835 349.611 44.0315 337.707 44.0315H335.403ZM326.955 24.2555H344.043V23.6795C344.043 20.2875 342.891 19.2635 335.659 19.2635H335.083C328.171 19.2635 326.955 20.2875 326.955 24.2555ZM400.287 44.0315C389.343 44.0315 386.335 41.0875 386.335 31.8715V20.9275H380.575V12.7995H386.335V4.79953H398.047V12.7995H416.671V20.9275H398.047V29.8235C398.047 34.8155 398.687 35.3915 402.591 35.3915H403.231C407.007 35.3915 407.391 34.6235 407.391 30.9755V30.0155H417.503V32.9595C417.503 41.4075 413.663 44.0315 401.759 44.0315H400.287ZM442.018 44.0315C426.274 44.0315 422.37 41.9835 422.37 28.4795V27.6475C422.37 14.1435 426.402 12.2875 442.018 12.2875H444.898C460.642 12.2875 464.546 14.1435 464.546 27.6475V28.4795C464.546 41.9835 460.642 44.0315 444.898 44.0315H442.018ZM442.402 35.3915H444.514C451.938 35.3915 452.898 34.4955 452.898 28.4795V27.6475C452.898 21.6315 451.938 20.7355 444.514 20.7355H442.402C434.978 20.7355 434.018 21.6315 434.018 27.6475V28.4795C434.018 34.4955 434.978 35.3915 442.402 35.3915ZM5.78054 124.52V80.9995H39.8925C54.2285 80.9995 57.7485 84.1995 57.7485 94.2475V95.7835C57.7485 102.568 55.7005 105.96 50.1325 107.24V107.496C56.3405 108.456 57.7485 110.184 57.7485 117.864V124.52H44.9485V121C44.9485 113.32 43.5405 112.424 31.5085 112.424H18.5805V124.52H5.78054ZM18.5805 102.952H34.7085C43.6045 102.952 44.6925 102.12 44.6925 97.1275V96.3595C44.6925 91.4315 43.5405 90.5995 34.7085 90.5995H18.5805V102.952ZM65.898 90.0235V80.9995H77.802V90.0235H65.898ZM65.898 124.52V93.7995H77.802V124.52H65.898ZM102.724 125.032C88.196 125.032 84.932 122.344 84.932 109.48V108.648C84.932 95.7835 88.644 93.2875 102.724 93.2875H104.004C109.636 93.2875 113.604 94.5035 115.78 97.8315H115.908V80.9995H127.812V124.52H116.292V120.488H116.164C113.476 124.264 109.636 125.032 103.428 125.032H102.724ZM105.412 116.328H107.524C114.948 116.328 116.1 115.368 116.1 109.48V108.648C116.1 102.76 114.948 101.8 107.524 101.8H105.412C97.988 101.8 96.836 102.76 96.836 108.648V109.48C96.836 115.368 97.988 116.328 105.412 116.328ZM155.028 125.032C139.412 125.032 134.932 122.856 134.932 109.608V108.84C134.932 95.6555 140.308 93.2875 153.556 93.2875H155.732C169.428 93.2875 174.932 95.3995 174.932 106.344V111.528H146.58V112.168C146.58 116.968 147.988 117.608 155.092 117.608H156.372C162.836 117.608 163.924 116.968 163.924 114.408V114.152H175.06V114.856C175.06 122.984 169.236 125.032 157.332 125.032H155.028ZM146.58 105.256H163.668V104.68C163.668 101.288 162.516 100.264 155.284 100.264H154.708C147.796 100.264 146.58 101.288 146.58 105.256ZM182.531 124.52V80.9995H217.923C231.235 80.9995 235.331 83.6875 235.331 91.8795C235.331 98.0235 233.091 100.584 229.251 101.736V101.928C234.051 102.76 236.739 105.896 236.739 111.976C236.739 121.832 231.875 124.52 221.187 124.52H182.531ZM195.331 98.1515H218.627C221.315 98.1515 222.851 97.1915 222.851 94.1195C222.851 90.8555 221.315 89.9595 218.627 89.9595H195.331V98.1515ZM195.331 115.24H218.947C222.851 115.24 224.067 113.832 224.067 110.824C224.067 107.688 222.787 106.472 218.947 106.472H195.331V115.24ZM259.52 125.032C246.208 125.032 243.136 121.896 243.136 109.928V93.7995H255.04V108.904C255.04 114.792 256.128 116.136 263.232 116.136H263.936C271.04 116.136 272.896 114.28 272.896 108.776V93.7995H284.8V124.52H272.896V119.464H272.768C270.656 123.496 266.944 125.032 260.16 125.032H259.52ZM293.148 90.0235V80.9995H305.052V90.0235H293.148ZM293.148 124.52V93.7995H305.052V124.52H293.148ZM313.398 124.52V80.9995H325.302V124.52H313.398ZM350.224 125.032C335.696 125.032 332.432 122.344 332.432 109.48V108.648C332.432 95.7835 336.144 93.2875 350.224 93.2875H351.504C357.136 93.2875 361.104 94.5035 363.28 97.8315H363.408V80.9995H375.312V124.52H363.792V120.488H363.664C360.976 124.264 357.136 125.032 350.928 125.032H350.224ZM352.912 116.328H355.024C362.448 116.328 363.6 115.368 363.6 109.48V108.648C363.6 102.76 362.448 101.8 355.024 101.8H352.912C345.488 101.8 344.336 102.76 344.336 108.648V109.48C344.336 115.368 345.488 116.328 352.912 116.328ZM402.528 125.032C386.912 125.032 382.432 122.856 382.432 109.608V108.84C382.432 95.6555 387.808 93.2875 401.056 93.2875H403.232C416.928 93.2875 422.432 95.3995 422.432 106.344V111.528H394.08V112.168C394.08 116.968 395.488 117.608 402.592 117.608H403.872C410.336 117.608 411.424 116.968 411.424 114.408V114.152H422.56V114.856C422.56 122.984 416.736 125.032 404.832 125.032H402.528ZM394.08 105.256H411.168V104.68C411.168 101.288 410.016 100.264 402.784 100.264H402.208C395.296 100.264 394.08 101.288 394.08 105.256ZM429.711 124.52V93.7995H441.423V100.008H441.615C443.087 95.8475 446.159 93.2875 453.135 93.2875H453.775C462.351 93.2875 464.271 96.4235 464.271 104.168C464.271 105 464.271 106.664 464.143 107.816H453.455V105.832C453.455 102.696 452.303 101.992 448.143 101.992H447.631C443.151 101.992 441.615 103.784 441.615 109.224V124.52H429.711Z" fill="black"/>
</svg>
