<svg width="990" height="44" viewBox="0 0 990 44" fill="none" xmlns="http://www.w3.org/2000/svg">
<path d="M54.144 42.6875L44.672 12.4155L34.816 42.6875H17.344L-2.72989e-05 -0.00050354H13.312L25.792 32.3835L36.992 -0.00050354H52.672L63.296 32.3835L76.16 -0.00050354H89.408L71.808 42.6875H54.144ZM118.923 43.3275L108.235 42.9435C103.115 42.9435 99.6163 41.6422 97.739 39.0395C95.9043 36.4368 94.987 32.3835 94.987 26.8795C94.987 21.8448 95.9683 18.1755 97.931 15.8715C99.8936 13.5248 103.307 12.3515 108.171 12.3515L118.667 12.1595C121.824 12.1595 124.448 12.3302 126.539 12.6715C128.63 13.0128 130.422 13.8022 131.915 15.0395C133.408 16.2768 134.39 17.8128 134.859 19.6475C135.371 21.4822 135.627 23.5728 135.627 25.9195C135.627 26.4315 135.606 27.0075 135.563 27.6475C135.563 28.2875 135.563 29.0128 135.563 29.8235H106.251C106.251 32.1702 106.678 33.8342 107.531 34.8155C108.384 35.7542 109.963 36.2235 112.267 36.2235L118.539 36.3515C119.947 36.3515 121.12 36.2662 122.059 36.0955C122.998 35.9248 123.616 35.6262 123.915 35.1995C124.256 34.7728 124.47 34.0048 124.555 32.8955H135.563C135.563 37.3755 134.112 40.2342 131.211 41.4715C128.352 42.7088 124.256 43.3275 118.923 43.3275ZM113.675 18.8155C111.328 18.8155 109.494 19.0715 108.171 19.5835C106.848 20.0528 106.187 21.2688 106.187 23.2315L106.251 24.0635H124.619C124.619 21.8875 124.086 20.4795 123.019 19.8395C121.952 19.1568 120.224 18.8155 117.835 18.8155H113.675ZM144.006 42.6875V-0.00050354H155.078V42.6875H144.006ZM201.818 40.1275C200.154 41.4928 197.786 42.3675 194.714 42.7515C191.685 43.1355 188.378 43.3275 184.794 43.3275C179.674 43.3275 175.706 43.0288 172.89 42.4315C170.074 41.8342 167.834 40.4048 166.17 38.1435C164.506 35.8395 163.674 32.2555 163.674 27.3915C163.674 22.4848 164.592 18.9008 166.426 16.6395C168.304 14.3782 171.61 13.0342 176.346 12.6075L186.842 12.1595C193.157 12.1595 197.765 12.8422 200.666 14.2075C203.568 15.5728 205.018 19.0075 205.018 24.5115H193.882C193.754 23.7435 193.605 23.1462 193.434 22.7195C193.264 22.2502 192.922 21.8235 192.41 21.4395C191.898 21.0555 191.045 20.7995 189.85 20.6715C188.698 20.5008 187.461 20.4155 186.138 20.4155H184.346C182.554 20.4155 181.018 20.5008 179.738 20.6715C178.501 20.8422 177.52 21.2048 176.794 21.7595C176.069 22.3142 175.557 23.0182 175.258 23.8715C175.002 24.7248 174.874 25.9835 174.874 27.6475C174.874 30.9755 175.621 33.0448 177.114 33.8555C178.608 34.6662 181.232 35.0715 184.986 35.0715C187.418 35.0715 189.253 34.9435 190.49 34.6875C191.77 34.4315 192.624 34.0688 193.05 33.5995C193.477 33.0875 193.733 32.6182 193.818 32.1915C193.946 31.7648 194.01 31.1888 194.01 30.4635H205.274C205.274 32.7675 205.061 34.6662 204.634 36.1595C204.208 37.6102 203.269 38.9328 201.818 40.1275ZM233.788 12.2235L245.372 12.6715C249.383 13.1408 252.156 14.3782 253.692 16.3835C255.271 18.3462 256.06 21.4182 256.06 25.5995V26.8795C256.06 32.9382 255.378 37.0128 254.012 39.1035C252.647 41.1942 248.935 42.5168 242.876 43.0715L230.716 43.3275C224.231 43.3275 219.687 42.4955 217.084 40.8315C214.524 39.1675 213.244 35.3062 213.244 29.2475V27.4555C213.244 23.6582 213.586 20.6715 214.268 18.4955C214.951 16.3195 216.444 14.8048 218.748 13.9515C221.095 13.0555 223.783 12.5435 226.812 12.4155C229.884 12.2875 232.21 12.2235 233.788 12.2235ZM233.98 35.1355H235.196C237.244 35.1355 238.887 35.0715 240.124 34.9435C241.404 34.8155 242.364 34.5168 243.004 34.0475C243.687 33.5355 244.156 32.9168 244.412 32.1915C244.711 31.4235 244.86 30.2715 244.86 28.7355V26.4955C244.86 25.1302 244.732 24.1275 244.476 23.4875C244.22 22.8048 243.73 22.2075 243.004 21.6955C242.279 21.1835 241.148 20.8422 239.612 20.6715C238.076 20.5008 236.327 20.4155 234.364 20.4155C232.402 20.4155 230.738 20.5222 229.372 20.7355C228.007 20.9062 226.898 21.3328 226.044 22.0155C225.234 22.6982 224.764 23.6795 224.636 24.9595C224.508 26.1968 224.444 27.1782 224.444 27.9035C224.444 29.1835 224.551 30.3782 224.764 31.4875C224.978 32.5542 225.447 33.3648 226.172 33.9195C226.898 34.4742 228.178 34.8155 230.012 34.9435C231.89 35.0715 233.212 35.1355 233.98 35.1355ZM275.328 18.3675C276.438 15.9355 277.995 14.2928 280 13.4395C282.006 12.5862 284.523 12.1595 287.552 12.1595C290.88 12.1595 293.76 12.6288 296.192 13.5675C298.667 14.5062 300.502 16.2555 301.696 18.8155C302.464 16.2128 303.979 14.4635 306.24 13.5675C308.544 12.6288 311.339 12.1595 314.624 12.1595C319.702 12.1595 323.67 13.1835 326.528 15.2315C329.43 17.2795 330.88 20.7355 330.88 25.5995V42.6875H319.808V27.8395V26.8795C319.808 24.4902 319.339 22.8688 318.4 22.0155C317.462 21.1622 315.542 20.7355 312.64 20.7355H311.488C309.611 20.7355 308.011 20.9275 306.688 21.3115C305.408 21.6955 304.534 22.3142 304.064 23.1675C303.638 24.0208 303.36 24.8315 303.232 25.5995C303.147 26.3248 303.104 27.0715 303.104 27.8395V28.4155V42.6875H292.032V27.0715C292.032 24.5968 291.52 22.9328 290.496 22.0795C289.515 21.1835 287.702 20.7355 285.056 20.7355H284.096C281.195 20.7355 278.998 21.1408 277.504 21.9515C276.054 22.7622 275.328 24.4688 275.328 27.0715V42.6875H264.256V12.7995H275.328V18.3675ZM363.423 43.3275L352.735 42.9435C347.615 42.9435 344.116 41.6422 342.239 39.0395C340.404 36.4368 339.487 32.3835 339.487 26.8795C339.487 21.8448 340.468 18.1755 342.431 15.8715C344.394 13.5248 347.807 12.3515 352.671 12.3515L363.167 12.1595C366.324 12.1595 368.948 12.3302 371.039 12.6715C373.13 13.0128 374.922 13.8022 376.415 15.0395C377.908 16.2768 378.89 17.8128 379.359 19.6475C379.871 21.4822 380.127 23.5728 380.127 25.9195C380.127 26.4315 380.106 27.0075 380.063 27.6475C380.063 28.2875 380.063 29.0128 380.063 29.8235H350.751C350.751 32.1702 351.178 33.8342 352.031 34.8155C352.884 35.7542 354.463 36.2235 356.767 36.2235L363.039 36.3515C364.447 36.3515 365.62 36.2662 366.559 36.0955C367.498 35.9248 368.116 35.6262 368.415 35.1995C368.756 34.7728 368.97 34.0048 369.055 32.8955H380.063C380.063 37.3755 378.612 40.2342 375.711 41.4715C372.852 42.7088 368.756 43.3275 363.423 43.3275ZM358.175 18.8155C355.828 18.8155 353.994 19.0715 352.671 19.5835C351.348 20.0528 350.687 21.2688 350.687 23.2315L350.751 24.0635H369.119C369.119 21.8875 368.586 20.4795 367.519 19.8395C366.452 19.1568 364.724 18.8155 362.335 18.8155H358.175ZM419.482 20.1595V29.6955C419.482 31.6582 419.781 33.0448 420.378 33.8555C421.018 34.6662 422.277 35.0715 424.154 35.0715C425.818 35.0715 427.013 34.7942 427.738 34.2395C428.506 33.6848 428.89 32.6182 428.89 31.0395V29.6955H437.53C437.53 34.9862 436.677 38.5915 434.97 40.5115C433.306 42.3888 429.744 43.3275 424.282 43.3275C417.584 43.3275 413.21 42.4955 411.162 40.8315C409.114 39.1248 408.09 36.5008 408.09 32.9595V20.1595H402.394V12.7995H408.09V5.5035H419.482V12.7995H437.53V20.1595H419.482ZM466.288 12.2235L477.872 12.6715C481.883 13.1408 484.656 14.3782 486.192 16.3835C487.771 18.3462 488.56 21.4182 488.56 25.5995V26.8795C488.56 32.9382 487.878 37.0128 486.512 39.1035C485.147 41.1942 481.435 42.5168 475.376 43.0715L463.216 43.3275C456.731 43.3275 452.187 42.4955 449.584 40.8315C447.024 39.1675 445.744 35.3062 445.744 29.2475V27.4555C445.744 23.6582 446.086 20.6715 446.768 18.4955C447.451 16.3195 448.944 14.8048 451.248 13.9515C453.595 13.0555 456.283 12.5435 459.312 12.4155C462.384 12.2875 464.71 12.2235 466.288 12.2235ZM466.48 35.1355H467.696C469.744 35.1355 471.387 35.0715 472.624 34.9435C473.904 34.8155 474.864 34.5168 475.504 34.0475C476.187 33.5355 476.656 32.9168 476.912 32.1915C477.211 31.4235 477.36 30.2715 477.36 28.7355V26.4955C477.36 25.1302 477.232 24.1275 476.976 23.4875C476.72 22.8048 476.23 22.2075 475.504 21.6955C474.779 21.1835 473.648 20.8422 472.112 20.6715C470.576 20.5008 468.827 20.4155 466.864 20.4155C464.902 20.4155 463.238 20.5222 461.872 20.7355C460.507 20.9062 459.398 21.3328 458.544 22.0155C457.734 22.6982 457.264 23.6795 457.136 24.9595C457.008 26.1968 456.944 27.1782 456.944 27.9035C456.944 29.1835 457.051 30.3782 457.264 31.4875C457.478 32.5542 457.947 33.3648 458.672 33.9195C459.398 34.4742 460.678 34.8155 462.512 34.9435C464.39 35.0715 465.712 35.1355 466.48 35.1355ZM553.396 -0.00050354C558.516 -0.00050354 562.164 1.00216 564.34 3.0075C566.559 4.97017 567.668 8.46883 567.668 13.5035C567.668 15.4235 567.562 17.0662 567.348 18.4315C567.135 19.7968 566.708 20.9915 566.068 22.0155C565.428 22.9968 564.682 23.7435 563.828 24.2555C562.975 24.7248 561.183 25.4075 558.452 26.3035C561.439 26.6875 563.636 27.4555 565.044 28.6075C566.452 29.7168 567.156 31.6795 567.156 34.4955V42.6875H553.972V38.5915C553.972 36.5008 553.78 34.8368 553.396 33.5995C553.055 32.3622 551.37 31.7435 548.34 31.7435H526.644V42.6875H513.652V-0.00050354H553.396ZM547.956 21.3755C550.9 21.3755 552.735 21.0128 553.46 20.2875C554.186 19.5622 554.548 17.9408 554.548 15.4235C554.548 14.0155 554.399 12.9702 554.1 12.2875C553.844 11.6048 553.268 11.1355 552.372 10.8795C551.519 10.6235 550.815 10.4742 550.26 10.4315C549.706 10.3888 549.044 10.3675 548.276 10.3675H547.252H526.644V21.3755H546.292H547.956ZM577.444 8.0635V-0.00050354H588.516V8.0635H577.444ZM577.444 42.6875V12.7995H588.516V42.6875H577.444ZM629.56 42.6875V36.2235C628.835 39.0395 627.277 40.9382 624.888 41.9195C622.541 42.8582 619.64 43.3275 616.184 43.3275C612.6 43.3275 609.464 43.1142 606.776 42.6875C604.088 42.3035 602.04 41.4502 600.632 40.1275C599.224 38.8048 598.328 37.2475 597.944 35.4555C597.603 33.6635 597.432 31.5728 597.432 29.1835V27.0075C597.432 24.1488 597.624 21.7595 598.008 19.8395C598.435 17.8768 599.459 16.3195 601.08 15.1675C602.701 13.9728 604.771 13.1835 607.288 12.7995C609.848 12.3728 612.536 12.1595 615.352 12.1595C619.789 12.1595 622.947 12.6075 624.824 13.5035C626.701 14.3568 628.28 15.7222 629.56 17.5995V-0.00050354H640.376V42.6875H629.56ZM620.344 35.0715C623.843 35.0715 626.232 34.6875 627.512 33.9195C628.835 33.1515 629.496 31.2102 629.496 28.0955C629.496 24.7248 628.941 22.6128 627.832 21.7595C626.723 20.8635 624.312 20.4155 620.6 20.4155H618.168C616.547 20.4155 615.075 20.5008 613.752 20.6715C612.472 20.8422 611.448 21.2048 610.68 21.7595C609.912 22.3142 609.421 23.0395 609.208 23.9355C608.995 24.8315 608.888 25.9622 608.888 27.3275C608.888 30.5702 609.379 32.6822 610.36 33.6635C611.341 34.6448 613.453 35.1355 616.696 35.1355L620.344 35.0715ZM672.485 43.3275L661.797 42.9435C656.677 42.9435 653.179 41.6422 651.301 39.0395C649.467 36.4368 648.549 32.3835 648.549 26.8795C648.549 21.8448 649.531 18.1755 651.493 15.8715C653.456 13.5248 656.869 12.3515 661.733 12.3515L672.229 12.1595C675.387 12.1595 678.011 12.3302 680.101 12.6715C682.192 13.0128 683.984 13.8022 685.477 15.0395C686.971 16.2768 687.952 17.8128 688.421 19.6475C688.933 21.4822 689.189 23.5728 689.189 25.9195C689.189 26.4315 689.168 27.0075 689.125 27.6475C689.125 28.2875 689.125 29.0128 689.125 29.8235H659.813C659.813 32.1702 660.24 33.8342 661.093 34.8155C661.947 35.7542 663.525 36.2235 665.829 36.2235L672.101 36.3515C673.509 36.3515 674.683 36.2662 675.621 36.0955C676.56 35.9248 677.179 35.6262 677.477 35.1995C677.819 34.7728 678.032 34.0048 678.117 32.8955H689.125C689.125 37.3755 687.675 40.2342 684.773 41.4715C681.915 42.7088 677.819 43.3275 672.485 43.3275ZM667.237 18.8155C664.891 18.8155 663.056 19.0715 661.733 19.5835C660.411 20.0528 659.749 21.2688 659.749 23.2315L659.813 24.0635H678.181C678.181 21.8875 677.648 20.4795 676.581 19.8395C675.515 19.1568 673.787 18.8155 671.397 18.8155H667.237ZM738.977 -0.00050354C743.244 -0.00050354 746.508 0.810164 748.769 2.4315C751.03 4.05283 752.161 6.9115 752.161 11.0075C752.161 12.7995 751.99 14.3355 751.649 15.6155C751.35 16.8528 750.774 17.8342 749.921 18.5595C749.11 19.2848 748.342 19.7755 747.617 20.0315C746.934 20.2875 745.953 20.5862 744.673 20.9275C748.129 21.4822 750.518 22.3568 751.841 23.5515C753.164 24.7462 753.825 27.0288 753.825 30.3995C753.825 35.1355 752.673 38.3782 750.369 40.1275C748.108 41.8342 744.524 42.6875 739.617 42.6875H698.465V-0.00050354H738.977ZM739.041 12.9275C739.041 11.4768 738.614 10.5168 737.761 10.0475C736.95 9.57816 735.734 9.3435 734.113 9.3435H711.457V16.7675H733.857C735.564 16.7675 736.844 16.5328 737.697 16.0635C738.593 15.5942 739.041 14.5488 739.041 12.9275ZM740.769 28.8635C740.769 27.7115 740.385 26.8155 739.617 26.1755C738.892 25.5355 737.441 25.2155 735.265 25.2155H711.457V33.0235H735.073C736.566 33.0235 737.889 32.8742 739.041 32.5755C740.193 32.2342 740.769 30.9968 740.769 28.8635ZM793.146 42.6875V36.5435C792.463 39.2315 790.863 41.0448 788.346 41.9835C785.871 42.8795 782.927 43.3275 779.514 43.3275C773.967 43.3275 769.871 42.3675 767.226 40.4475C764.581 38.4848 763.258 34.8155 763.258 29.4395V12.7995H774.33V28.4155C774.33 31.2742 775.034 33.1088 776.442 33.9195C777.85 34.6875 780.133 35.0715 783.29 35.0715C786.746 35.0715 789.242 34.5168 790.778 33.4075C792.357 32.2555 793.146 30.0582 793.146 26.8155V25.9195V12.7995H804.218V42.6875H793.146ZM813.569 8.0635V-0.00050354H824.641V8.0635H813.569ZM813.569 42.6875V12.7995H824.641V42.6875H813.569ZM834.069 42.6875V-0.00050354H845.141V42.6875H834.069ZM886.185 42.6875V36.2235C885.46 39.0395 883.902 40.9382 881.513 41.9195C879.166 42.8582 876.265 43.3275 872.809 43.3275C869.225 43.3275 866.089 43.1142 863.401 42.6875C860.713 42.3035 858.665 41.4502 857.257 40.1275C855.849 38.8048 854.953 37.2475 854.569 35.4555C854.228 33.6635 854.057 31.5728 854.057 29.1835V27.0075C854.057 24.1488 854.249 21.7595 854.633 19.8395C855.06 17.8768 856.084 16.3195 857.705 15.1675C859.326 13.9728 861.396 13.1835 863.913 12.7995C866.473 12.3728 869.161 12.1595 871.977 12.1595C876.414 12.1595 879.572 12.6075 881.449 13.5035C883.326 14.3568 884.905 15.7222 886.185 17.5995V-0.00050354H897.001V42.6875H886.185ZM876.969 35.0715C880.468 35.0715 882.857 34.6875 884.137 33.9195C885.46 33.1515 886.121 31.2102 886.121 28.0955C886.121 24.7248 885.566 22.6128 884.457 21.7595C883.348 20.8635 880.937 20.4155 877.225 20.4155H874.793C873.172 20.4155 871.7 20.5008 870.377 20.6715C869.097 20.8422 868.073 21.2048 867.305 21.7595C866.537 22.3142 866.046 23.0395 865.833 23.9355C865.62 24.8315 865.513 25.9622 865.513 27.3275C865.513 30.5702 866.004 32.6822 866.985 33.6635C867.966 34.6448 870.078 35.1355 873.321 35.1355L876.969 35.0715ZM929.11 43.3275L918.422 42.9435C913.302 42.9435 909.804 41.6422 907.926 39.0395C906.092 36.4368 905.174 32.3835 905.174 26.8795C905.174 21.8448 906.156 18.1755 908.118 15.8715C910.081 13.5248 913.494 12.3515 918.358 12.3515L928.854 12.1595C932.012 12.1595 934.636 12.3302 936.726 12.6715C938.817 13.0128 940.609 13.8022 942.102 15.0395C943.596 16.2768 944.577 17.8128 945.046 19.6475C945.558 21.4822 945.814 23.5728 945.814 25.9195C945.814 26.4315 945.793 27.0075 945.75 27.6475C945.75 28.2875 945.75 29.0128 945.75 29.8235H916.438C916.438 32.1702 916.865 33.8342 917.718 34.8155C918.572 35.7542 920.15 36.2235 922.454 36.2235L928.726 36.3515C930.134 36.3515 931.308 36.2662 932.246 36.0955C933.185 35.9248 933.804 35.6262 934.102 35.1995C934.444 34.7728 934.657 34.0048 934.742 32.8955H945.75C945.75 37.3755 944.3 40.2342 941.398 41.4715C938.54 42.7088 934.444 43.3275 929.11 43.3275ZM923.862 18.8155C921.516 18.8155 919.681 19.0715 918.358 19.5835C917.036 20.0528 916.374 21.2688 916.374 23.2315L916.438 24.0635H934.806C934.806 21.8875 934.273 20.4795 933.206 19.8395C932.14 19.1568 930.412 18.8155 928.022 18.8155H923.862ZM965.266 18.7515C966.077 16.1915 967.463 14.4635 969.426 13.5675C971.431 12.6288 973.949 12.1595 976.978 12.1595C981.586 12.1595 984.765 12.9702 986.514 14.5915C988.263 16.2128 989.138 19.2848 989.138 23.8075V25.7275H978.834C978.791 25.5995 978.77 25.3648 978.77 25.0235C978.599 23.0182 978.066 21.7595 977.17 21.2475C976.317 20.6928 974.717 20.4155 972.37 20.4155C969.682 20.4155 967.826 21.1408 966.802 22.5915C965.778 23.9995 965.266 26.1542 965.266 29.0555V42.6875H954.194V12.7995H965.266V18.7515Z" fill="black"/>
</svg>
