<svg width="629" height="51" viewBox="0 0 629 51" fill="none" xmlns="http://www.w3.org/2000/svg">
<path d="M0.000105478 16.4883L5.59211 0.168281H10.0801L15.6001 16.4883H12.3121L11.2081 13.0563H4.29611L3.16811 16.4883H0.000105478ZM4.89611 10.7283H10.5841L7.87211 2.42428H7.72811L4.89611 10.7283ZM17.8805 16.4883V7.03228H16.3445V4.96828H17.8805V4.00828C17.8805 1.00828 18.8405 0.00028038 21.6245 0.00028038C22.2485 0.00028038 22.9205 0.0482798 23.4725 0.12028V2.18428C23.1605 2.13628 22.7765 2.11228 22.4165 2.11228C21.0245 2.11228 20.7365 2.44828 20.7365 4.15228V4.96828H23.2325V7.03228H20.7365V16.4883H17.8805ZM29.1318 16.6803C26.0358 16.6803 25.3158 15.8643 25.3158 12.0243V7.05628H23.7318V4.96828H25.3158V1.96828H28.1238V4.96828H33.4998V7.05628H28.1238V11.7363C28.1238 14.2083 28.3398 14.4243 29.5878 14.4243H29.8518C31.1478 14.4243 31.3158 14.0883 31.3158 12.0723V11.3763H33.6198V12.5283C33.6198 15.8163 32.7798 16.6803 29.5878 16.6803H29.1318ZM40.681 16.6803C36.553 16.6803 35.521 15.5523 35.521 11.4003V10.1283C35.521 5.83228 36.745 4.77628 40.657 4.77628H41.089C45.073 4.77628 46.153 5.73628 46.153 9.67228V11.3283H38.281V11.8323C38.281 14.1363 38.665 14.5683 40.873 14.5683H41.209C43.177 14.5683 43.609 14.2323 43.609 12.8883V12.6723H46.201V12.9363C46.201 15.8163 44.833 16.6803 41.257 16.6803H40.681ZM38.257 9.57628H43.537V9.19228C43.537 7.22428 43.201 6.74428 41.041 6.74428H40.825C38.641 6.74428 38.281 7.15228 38.257 9.57628ZM48.871 16.4883V4.96828H51.631V7.05628H51.679C52.183 5.47228 53.023 4.77628 55.039 4.77628H55.183C57.703 4.77628 58.231 5.64028 58.231 8.35228C58.231 8.64028 58.231 9.09628 58.207 9.72028H55.783V9.02428C55.783 7.56028 55.495 7.17628 54.007 7.17628H53.791C52.399 7.17628 51.727 7.77628 51.727 10.0323V16.4883H48.871ZM60.2673 16.4883V4.96828H63.0753V6.81628H63.0993C63.5553 5.56828 64.6113 4.77628 66.5793 4.77628H66.7953C69.0513 4.77628 69.9633 5.44828 70.3233 7.00828H70.3473C70.8513 5.64028 71.9073 4.77628 73.9953 4.77628H74.2113C77.2593 4.77628 78.0513 5.80828 78.0513 9.28828V16.4883H75.1953V9.76828C75.1953 7.48828 74.8593 7.00828 73.0833 7.00828H72.8673C71.2353 7.00828 70.5873 7.60828 70.5873 9.64828V16.4883H67.7313V9.76828C67.7313 7.46428 67.3233 7.00828 65.7153 7.00828H65.4993C63.7473 7.00828 63.1233 7.58428 63.1233 9.76828V16.4883H60.2673ZM84.5922 16.6803C81.4482 16.6803 80.6082 15.9123 80.6082 13.1763V12.6723C80.6082 10.0323 81.7122 9.28828 84.6882 9.28828H84.9042C86.8482 9.28828 87.7122 9.57628 88.2162 10.2963H88.2882V9.33628C88.2882 7.10428 88.0962 6.76828 85.9602 6.76828H85.6962C83.9442 6.76828 83.5362 7.08028 83.5362 8.04028V8.35228H80.9442V8.11228C80.9442 5.35228 82.0962 4.77628 85.8402 4.77628H86.2242C90.3282 4.77628 90.9762 5.49628 90.9762 9.86428V16.4883H88.2882V15.2643H88.2402C87.7122 16.2723 86.8482 16.6803 84.9282 16.6803H84.5922ZM85.6722 14.6403H85.9122C87.8322 14.6403 88.3122 14.3523 88.3122 13.0803V12.6963C88.3122 11.3763 87.8802 11.1363 85.7922 11.1363H85.5522C83.6322 11.1363 83.2482 11.4243 83.2482 12.6963V13.0803C83.2482 14.3523 83.6322 14.6403 85.6722 14.6403ZM93.9114 16.4883V4.96828H96.6714V7.05628H96.7194C97.2234 5.47228 98.0634 4.77628 100.079 4.77628H100.223C102.743 4.77628 103.271 5.64028 103.271 8.35228C103.271 8.64028 103.271 9.09628 103.247 9.72028H100.823V9.02428C100.823 7.56028 100.535 7.17628 99.0474 7.17628H98.8314C97.4394 7.17628 96.7674 7.77628 96.7674 10.0323V16.4883H93.9114ZM105.308 16.4883V0.168281H108.14V9.55228H108.692L112.22 4.96828H115.388L111.092 10.3203L115.844 16.4883H112.532L108.644 11.1843H108.14V16.4883H105.308ZM121.926 16.6803C117.798 16.6803 116.766 15.5523 116.766 11.4003V10.1283C116.766 5.83228 117.99 4.77628 121.902 4.77628H122.334C126.318 4.77628 127.398 5.73628 127.398 9.67228V11.3283H119.526V11.8323C119.526 14.1363 119.91 14.5683 122.118 14.5683H122.454C124.422 14.5683 124.854 14.2323 124.854 12.8883V12.6723H127.446V12.9363C127.446 15.8163 126.078 16.6803 122.502 16.6803H121.926ZM119.502 9.57628H124.782V9.19228C124.782 7.22428 124.446 6.74428 122.286 6.74428H122.07C119.886 6.74428 119.526 7.15228 119.502 9.57628ZM134.388 16.6803C131.292 16.6803 130.572 15.8643 130.572 12.0243V7.05628H128.988V4.96828H130.572V1.96828H133.38V4.96828H138.756V7.05628H133.38V11.7363C133.38 14.2083 133.596 14.4243 134.844 14.4243H135.108C136.404 14.4243 136.572 14.0883 136.572 12.0723V11.3763H138.876V12.5283C138.876 15.8163 138.036 16.6803 134.844 16.6803H134.388ZM151.96 16.6803C147.736 16.6803 146.968 15.9123 146.968 13.4163V12.9363H149.584V13.1283C149.584 14.3763 149.872 14.6403 151.96 14.6403H152.464C154.336 14.6403 154.672 14.3763 154.672 13.2723V13.1043C154.672 12.0723 154.408 11.7123 151.384 11.4963C147.856 11.2563 147.112 10.5123 147.112 8.23228V7.96828C147.112 5.61628 148.12 4.77628 151.576 4.77628H152.032C156.16 4.77628 156.928 5.44828 156.928 8.01628V8.30428H154.384V8.16028C154.384 7.05628 154.096 6.76828 152.248 6.76828H151.888C150.04 6.76828 149.752 7.03228 149.752 7.99228V8.20828C149.752 9.02428 150.064 9.31228 152.416 9.43228C156.496 9.74428 157.336 10.4643 157.336 12.8163V13.1763C157.336 15.8883 156.208 16.6803 152.56 16.6803H151.96ZM159.898 16.4883V0.168281H162.754V6.81628H162.778C163.33 5.44828 164.29 4.77628 166.426 4.77628H166.642C169.834 4.77628 170.746 5.73628 170.746 9.31228V16.4883H167.89V9.76828C167.89 7.46428 167.554 7.00828 165.562 7.00828H165.322C163.426 7.00828 162.754 7.58428 162.754 9.76828V16.4883H159.898ZM178.701 16.6803C174.453 16.6803 173.349 15.5043 173.349 11.4003V10.0323C173.349 5.97628 174.477 4.77628 178.701 4.77628H179.181C183.381 4.77628 184.485 5.97628 184.485 10.0323V11.4003C184.485 15.5043 183.405 16.6803 179.181 16.6803H178.701ZM178.773 14.4723H179.085C181.269 14.4723 181.677 13.9443 181.677 11.4003V10.0323C181.677 7.46428 181.269 6.96028 179.085 6.96028H178.773C176.589 6.96028 176.181 7.46428 176.181 10.0323V11.4003C176.181 13.9443 176.613 14.4723 178.773 14.4723ZM187.167 20.5683V4.96828H189.927V6.40828H189.975C190.575 5.13628 191.655 4.77628 193.575 4.77628H193.887C197.295 4.77628 198.183 5.95228 198.183 10.2243V11.1603C198.183 15.4563 197.271 16.6803 193.839 16.6803H193.551C191.679 16.6803 190.671 16.3443 190.071 14.9523H190.023V20.5683H187.167ZM192.495 14.4723H192.831C194.895 14.4723 195.327 13.9443 195.327 11.3043V10.1043C195.327 7.46428 194.895 6.96028 192.831 6.96028H192.495C190.407 6.96028 189.927 7.44028 189.927 10.0323V11.4003C189.927 13.9203 190.383 14.4723 192.495 14.4723ZM200.86 20.5683V4.96828H203.62V6.40828H203.668C204.268 5.13628 205.348 4.77628 207.268 4.77628H207.58C210.988 4.77628 211.876 5.95228 211.876 10.2243V11.1603C211.876 15.4563 210.964 16.6803 207.532 16.6803H207.244C205.372 16.6803 204.364 16.3443 203.764 14.9523H203.716V20.5683H200.86ZM206.188 14.4723H206.524C208.588 14.4723 209.02 13.9443 209.02 11.3043V10.1043C209.02 7.46428 208.588 6.96028 206.524 6.96028H206.188C204.1 6.96028 203.62 7.44028 203.62 10.0323V11.4003C203.62 13.9203 204.076 14.4723 206.188 14.4723ZM214.554 2.71228V0.168281H217.41V2.71228H214.554ZM214.554 16.4883V4.96828H217.41V16.4883H214.554ZM220.419 16.4883V4.96828H223.227V6.81628H223.251C223.803 5.44828 224.787 4.77628 226.947 4.77628H227.163C230.379 4.77628 231.267 5.76028 231.267 9.31228V16.4883H228.411V9.76828C228.411 7.48828 228.075 7.00828 226.083 7.00828H225.843C223.995 7.00828 223.275 7.58428 223.275 9.76828V16.4883H220.419ZM239.005 20.7603C235.213 20.7603 234.157 20.1603 234.157 17.3283V17.0403H236.773V17.2083C236.773 18.2883 237.109 18.6003 238.981 18.6003H239.389C241.765 18.6003 242.029 18.3363 242.029 15.8883V14.2563H241.957C241.405 15.4803 240.373 15.9123 238.381 15.9123H238.141C234.877 15.9123 233.893 15.0003 233.893 10.8003V10.0083C233.893 5.83228 234.877 4.77628 238.141 4.77628H238.429C240.301 4.77628 241.405 5.13628 242.029 6.43228H242.053V4.96828H244.813V15.7203C244.813 19.9923 243.709 20.7603 239.413 20.7603H239.005ZM239.173 13.8003H239.509C241.621 13.8003 242.053 13.2723 242.053 10.8723V9.91228C242.053 7.46428 241.621 6.96028 239.509 6.96028H239.197C237.181 6.96028 236.725 7.44028 236.725 9.91228V10.8723C236.725 13.2963 237.181 13.8003 239.173 13.8003ZM254.524 16.4883V7.03228H252.988V4.96828H254.524V4.00828C254.524 1.00828 255.484 0.00028038 258.268 0.00028038C258.892 0.00028038 259.564 0.0482798 260.116 0.12028V2.18428C259.804 2.13628 259.42 2.11228 259.06 2.11228C257.668 2.11228 257.38 2.44828 257.38 4.15228V4.96828H259.876V7.03228H257.38V16.4883H254.524ZM266.496 16.6803C262.248 16.6803 261.144 15.5043 261.144 11.4003V10.0323C261.144 5.97628 262.272 4.77628 266.496 4.77628H266.976C271.176 4.77628 272.28 5.97628 272.28 10.0323V11.4003C272.28 15.5043 271.2 16.6803 266.976 16.6803H266.496ZM266.568 14.4723H266.88C269.064 14.4723 269.472 13.9443 269.472 11.4003V10.0323C269.472 7.46428 269.064 6.96028 266.88 6.96028H266.568C264.384 6.96028 263.976 7.46428 263.976 10.0323V11.4003C263.976 13.9443 264.408 14.4723 266.568 14.4723ZM274.962 16.4883V4.96828H277.722V7.05628H277.77C278.274 5.47228 279.114 4.77628 281.13 4.77628H281.274C283.794 4.77628 284.322 5.64028 284.322 8.35228C284.322 8.64028 284.322 9.09628 284.298 9.72028H281.874V9.02428C281.874 7.56028 281.586 7.17628 280.098 7.17628H279.882C278.49 7.17628 277.818 7.77628 277.818 10.0323V16.4883H274.962ZM296.871 16.6803C293.775 16.6803 293.055 15.8643 293.055 12.0243V7.05628H291.471V4.96828H293.055V1.96828H295.863V4.96828H301.239V7.05628H295.863V11.7363C295.863 14.2083 296.079 14.4243 297.327 14.4243H297.591C298.887 14.4243 299.055 14.0883 299.055 12.0723V11.3763H301.359V12.5283C301.359 15.8163 300.519 16.6803 297.327 16.6803H296.871ZM303.643 16.4883V0.168281H306.499V6.81628H306.523C307.075 5.44828 308.035 4.77628 310.171 4.77628H310.387C313.579 4.77628 314.491 5.73628 314.491 9.31228V16.4883H311.635V9.76828C311.635 7.46428 311.299 7.00828 309.307 7.00828H309.067C307.171 7.00828 306.499 7.58428 306.499 9.76828V16.4883H303.643ZM322.254 16.6803C318.126 16.6803 317.094 15.5523 317.094 11.4003V10.1283C317.094 5.83228 318.318 4.77628 322.23 4.77628H322.662C326.646 4.77628 327.726 5.73628 327.726 9.67228V11.3283H319.854V11.8323C319.854 14.1363 320.238 14.5683 322.446 14.5683H322.782C324.75 14.5683 325.182 14.2323 325.182 12.8883V12.6723H327.774V12.9363C327.774 15.8163 326.406 16.6803 322.83 16.6803H322.254ZM319.83 9.57628H325.11V9.19228C325.11 7.22428 324.774 6.74428 322.614 6.74428H322.398C320.214 6.74428 319.854 7.15228 319.83 9.57628ZM336.684 16.4883V4.96828H339.492V6.81628H339.516C339.972 5.56828 341.028 4.77628 342.996 4.77628H343.212C345.468 4.77628 346.38 5.44828 346.74 7.00828H346.764C347.268 5.64028 348.324 4.77628 350.412 4.77628H350.628C353.676 4.77628 354.468 5.80828 354.468 9.28828V16.4883H351.612V9.76828C351.612 7.48828 351.276 7.00828 349.5 7.00828H349.284C347.652 7.00828 347.004 7.60828 347.004 9.64828V16.4883H344.148V9.76828C344.148 7.46428 343.74 7.00828 342.132 7.00828H341.916C340.164 7.00828 339.54 7.58428 339.54 9.76828V16.4883H336.684ZM362.376 16.6803C358.128 16.6803 357.024 15.5043 357.024 11.4003V10.0323C357.024 5.97628 358.152 4.77628 362.376 4.77628H362.856C367.056 4.77628 368.16 5.97628 368.16 10.0323V11.4003C368.16 15.5043 367.08 16.6803 362.856 16.6803H362.376ZM362.448 14.4723H362.76C364.944 14.4723 365.352 13.9443 365.352 11.4003V10.0323C365.352 7.46428 364.944 6.96028 362.76 6.96028H362.448C360.264 6.96028 359.856 7.46428 359.856 10.0323V11.4003C359.856 13.9443 360.288 14.4723 362.448 14.4723ZM374.827 16.6803C371.395 16.6803 370.507 15.4323 370.507 11.1603V10.2243C370.507 5.95228 371.395 4.77628 374.779 4.77628H375.139C376.987 4.77628 378.067 5.16028 378.619 6.40828H378.643V0.168281H381.499V16.4883H378.739V14.9523H378.691C378.067 16.3443 376.987 16.6803 375.091 16.6803H374.827ZM375.835 14.4723H376.171C378.307 14.4723 378.739 13.9683 378.739 11.4003V10.0323C378.739 7.48828 378.283 6.96028 376.171 6.96028H375.835C373.795 6.96028 373.363 7.46428 373.363 10.1043V11.3043C373.363 13.9443 373.795 14.4723 375.835 14.4723ZM389.313 16.6803C385.185 16.6803 384.153 15.5523 384.153 11.4003V10.1283C384.153 5.83228 385.377 4.77628 389.289 4.77628H389.721C393.705 4.77628 394.785 5.73628 394.785 9.67228V11.3283H386.913V11.8323C386.913 14.1363 387.297 14.5683 389.505 14.5683H389.841C391.809 14.5683 392.241 14.2323 392.241 12.8883V12.6723H394.833V12.9363C394.833 15.8163 393.465 16.6803 389.889 16.6803H389.313ZM386.889 9.57628H392.169V9.19228C392.169 7.22428 391.833 6.74428 389.673 6.74428H389.457C387.273 6.74428 386.913 7.15228 386.889 9.57628ZM397.503 16.4883V4.96828H400.263V7.05628H400.311C400.815 5.47228 401.655 4.77628 403.671 4.77628H403.815C406.335 4.77628 406.863 5.64028 406.863 8.35228C406.863 8.64028 406.863 9.09628 406.839 9.72028H404.415V9.02428C404.415 7.56028 404.127 7.17628 402.639 7.17628H402.423C401.031 7.17628 400.359 7.77628 400.359 10.0323V16.4883H397.503ZM408.899 16.4883V4.96828H411.707V6.81628H411.731C412.283 5.44828 413.267 4.77628 415.427 4.77628H415.643C418.859 4.77628 419.747 5.76028 419.747 9.31228V16.4883H416.891V9.76828C416.891 7.48828 416.555 7.00828 414.563 7.00828H414.323C412.475 7.00828 411.755 7.58428 411.755 9.76828V16.4883H408.899ZM432.573 16.6803C429.429 16.6803 428.589 15.9123 428.589 13.1763V12.6723C428.589 10.0323 429.693 9.28828 432.669 9.28828H432.885C434.829 9.28828 435.693 9.57628 436.197 10.2963H436.269V9.33628C436.269 7.10428 436.077 6.76828 433.941 6.76828H433.677C431.925 6.76828 431.517 7.08028 431.517 8.04028V8.35228H428.925V8.11228C428.925 5.35228 430.077 4.77628 433.821 4.77628H434.205C438.309 4.77628 438.957 5.49628 438.957 9.86428V16.4883H436.269V15.2643H436.221C435.693 16.2723 434.829 16.6803 432.909 16.6803H432.573ZM433.653 14.6403H433.893C435.813 14.6403 436.293 14.3523 436.293 13.0803V12.6963C436.293 11.3763 435.861 11.1363 433.773 11.1363H433.533C431.613 11.1363 431.229 11.4243 431.229 12.6963V13.0803C431.229 14.3523 431.613 14.6403 433.653 14.6403ZM445.829 16.6803C442.661 16.6803 441.749 15.6723 441.749 12.0723V4.96828H444.605V11.6403C444.605 14.0163 444.917 14.4723 446.933 14.4723H447.149C449.021 14.4723 449.741 13.9683 449.741 11.6643V4.96828H452.597V16.4883H449.789V14.6163H449.765C449.237 16.0083 448.205 16.6803 446.021 16.6803H445.829ZM459.858 16.6803C456.762 16.6803 456.042 15.8643 456.042 12.0243V7.05628H454.458V4.96828H456.042V1.96828H458.85V4.96828H464.226V7.05628H458.85V11.7363C458.85 14.2083 459.066 14.4243 460.314 14.4243H460.578C461.874 14.4243 462.042 14.0883 462.042 12.0723V11.3763H464.346V12.5283C464.346 15.8163 463.506 16.6803 460.314 16.6803H459.858ZM471.599 16.6803C467.351 16.6803 466.247 15.5043 466.247 11.4003V10.0323C466.247 5.97628 467.375 4.77628 471.599 4.77628H472.079C476.279 4.77628 477.383 5.97628 477.383 10.0323V11.4003C477.383 15.5043 476.303 16.6803 472.079 16.6803H471.599ZM471.671 14.4723H471.983C474.167 14.4723 474.575 13.9443 474.575 11.4003V10.0323C474.575 7.46428 474.167 6.96028 471.983 6.96028H471.671C469.487 6.96028 469.079 7.46428 469.079 10.0323V11.4003C469.079 13.9443 469.511 14.4723 471.671 14.4723ZM480.066 16.4883V4.96828H482.874V6.81628H482.898C483.354 5.56828 484.41 4.77628 486.378 4.77628H486.594C488.85 4.77628 489.762 5.44828 490.122 7.00828H490.146C490.65 5.64028 491.706 4.77628 493.794 4.77628H494.01C497.058 4.77628 497.85 5.80828 497.85 9.28828V16.4883H494.994V9.76828C494.994 7.48828 494.658 7.00828 492.882 7.00828H492.666C491.034 7.00828 490.386 7.60828 490.386 9.64828V16.4883H487.53V9.76828C487.53 7.46428 487.122 7.00828 485.514 7.00828H485.298C483.546 7.00828 482.922 7.58428 482.922 9.76828V16.4883H480.066ZM505.759 16.6803C501.511 16.6803 500.407 15.5043 500.407 11.4003V10.0323C500.407 5.97628 501.535 4.77628 505.759 4.77628H506.239C510.439 4.77628 511.543 5.97628 511.543 10.0323V11.4003C511.543 15.5043 510.463 16.6803 506.239 16.6803H505.759ZM505.831 14.4723H506.143C508.327 14.4723 508.735 13.9443 508.735 11.4003V10.0323C508.735 7.46428 508.327 6.96028 506.143 6.96028H505.831C503.647 6.96028 503.239 7.46428 503.239 10.0323V11.4003C503.239 13.9443 503.671 14.4723 505.831 14.4723ZM518.497 16.6803C515.401 16.6803 514.681 15.8643 514.681 12.0243V7.05628H513.097V4.96828H514.681V1.96828H517.489V4.96828H522.865V7.05628H517.489V11.7363C517.489 14.2083 517.705 14.4243 518.953 14.4243H519.217C520.513 14.4243 520.681 14.0883 520.681 12.0723V11.3763H522.985V12.5283C522.985 15.8163 522.145 16.6803 518.953 16.6803H518.497ZM525.27 2.71228V0.168281H528.126V2.71228H525.27ZM525.27 16.4883V4.96828H528.126V16.4883H525.27ZM533.751 16.4883L529.887 4.96828H532.911L535.719 14.3283H535.791L538.599 4.96828H541.527L537.639 16.4883H533.751ZM547.988 16.6803C543.86 16.6803 542.828 15.5523 542.828 11.4003V10.1283C542.828 5.83228 544.052 4.77628 547.964 4.77628H548.396C552.38 4.77628 553.46 5.73628 553.46 9.67228V11.3283H545.588V11.8323C545.588 14.1363 545.972 14.5683 548.18 14.5683H548.516C550.484 14.5683 550.916 14.2323 550.916 12.8883V12.6723H553.508V12.9363C553.508 15.8163 552.14 16.6803 548.564 16.6803H547.988ZM545.564 9.57628H550.844V9.19228C550.844 7.22428 550.508 6.74428 548.348 6.74428H548.132C545.948 6.74428 545.588 7.15228 545.564 9.57628ZM564.554 16.4883L561.29 4.96828H564.29L566.522 14.3763H566.618L568.922 4.96828H572.162L574.538 14.3763H574.634L576.818 4.96828H579.698L576.458 16.4883H572.618L570.554 7.65628H570.482L568.394 16.4883H564.554ZM586.587 16.6803C582.339 16.6803 581.235 15.5043 581.235 11.4003V10.0323C581.235 5.97628 582.363 4.77628 586.587 4.77628H587.067C591.267 4.77628 592.371 5.97628 592.371 10.0323V11.4003C592.371 15.5043 591.291 16.6803 587.067 16.6803H586.587ZM586.659 14.4723H586.971C589.155 14.4723 589.563 13.9443 589.563 11.4003V10.0323C589.563 7.46428 589.155 6.96028 586.971 6.96028H586.659C584.475 6.96028 584.067 7.46428 584.067 10.0323V11.4003C584.067 13.9443 584.499 14.4723 586.659 14.4723ZM595.054 16.4883V4.96828H597.814V7.05628H597.862C598.366 5.47228 599.206 4.77628 601.222 4.77628H601.366C603.886 4.77628 604.414 5.64028 604.414 8.35228C604.414 8.64028 604.414 9.09628 604.39 9.72028H601.966V9.02428C601.966 7.56028 601.678 7.17628 600.19 7.17628H599.974C598.582 7.17628 597.91 7.77628 597.91 10.0323V16.4883H595.054ZM606.45 16.4883V0.168281H609.306V16.4883H606.45ZM616.299 16.6803C612.867 16.6803 611.979 15.4323 611.979 11.1603V10.2243C611.979 5.95228 612.867 4.77628 616.251 4.77628H616.611C618.459 4.77628 619.539 5.16028 620.091 6.40828H620.115V0.168281H622.971V16.4883H620.211V14.9523H620.163C619.539 16.3443 618.459 16.6803 616.563 16.6803H616.299ZM617.307 14.4723H617.643C619.779 14.4723 620.211 13.9683 620.211 11.4003V10.0323C620.211 7.48828 619.755 6.96028 617.643 6.96028H617.307C615.267 6.96028 614.835 7.46428 614.835 10.1043V11.3043C614.835 13.9443 615.267 14.4723 617.307 14.4723ZM625.937 16.4883V13.2483H628.889V16.4883H625.937ZM407.79 46.4883V43.2483H410.742V46.4883H407.79Z" fill="#6D6559"/>
<path d="M1.27211 46.4883V30.1683H9.14411C12.9841 30.1683 14.1601 30.9603 14.1601 34.3443C14.1601 36.8643 13.4881 37.6563 11.7841 37.9923V38.0403C13.8001 38.3763 14.5921 39.2403 14.5921 42.0483C14.5921 45.5763 13.3201 46.4883 9.67211 46.4883H1.27211ZM4.29611 37.0083H9.16811C10.6801 37.0083 11.1841 36.6483 11.1841 34.7283C11.1841 32.8083 10.7041 32.4723 8.88011 32.4723H4.29611V37.0083ZM4.29611 44.1363H9.00011C11.1121 44.1363 11.5441 43.6563 11.5441 41.6883C11.5441 39.6723 10.9441 39.2163 9.26411 39.2163H4.29611V44.1363ZM21.1261 46.6803C17.9581 46.6803 17.0461 45.6723 17.0461 42.0723V34.9683H19.9021V41.6403C19.9021 44.0163 20.2141 44.4723 22.2301 44.4723H22.4461C24.3181 44.4723 25.0381 43.9683 25.0381 41.6643V34.9683H27.8941V46.4883H25.0861V44.6163H25.0621C24.5341 46.0083 23.5021 46.6803 21.3181 46.6803H21.1261ZM30.8832 32.7123V30.1683H33.7392V32.7123H30.8832ZM30.8832 46.4883V34.9683H33.7392V46.4883H30.8832ZM36.7482 46.4883V30.1683H39.6042V46.4883H36.7482ZM46.8852 46.6803C43.7892 46.6803 43.0692 45.8643 43.0692 42.0243V37.0563H41.4852V34.9683H43.0692V31.9683H45.8772V34.9683H51.2532V37.0563H45.8772V41.7363C45.8772 44.2083 46.0932 44.4243 47.3412 44.4243H47.6052C48.9012 44.4243 49.0692 44.0883 49.0692 42.0723V41.3763H51.3732V42.5283C51.3732 45.8163 50.5332 46.6803 47.3412 46.6803H46.8852ZM60.3539 46.4883V37.0323H58.8179V34.9683H60.3539V34.0083C60.3539 31.0083 61.3139 30.0003 64.0979 30.0003C64.7219 30.0003 65.3939 30.0483 65.9459 30.1203V32.1843C65.6339 32.1363 65.2499 32.1123 64.8899 32.1123C63.4979 32.1123 63.2099 32.4483 63.2099 34.1523V34.9683H65.7059V37.0323H63.2099V46.4883H60.3539ZM72.3252 46.6803C68.0772 46.6803 66.9732 45.5043 66.9732 41.4003V40.0323C66.9732 35.9763 68.1012 34.7763 72.3252 34.7763H72.8052C77.0052 34.7763 78.1092 35.9763 78.1092 40.0323V41.4003C78.1092 45.5043 77.0292 46.6803 72.8052 46.6803H72.3252ZM72.3972 44.4723H72.7092C74.8932 44.4723 75.3012 43.9443 75.3012 41.4003V40.0323C75.3012 37.4643 74.8932 36.9603 72.7092 36.9603H72.3972C70.2132 36.9603 69.8052 37.4643 69.8052 40.0323V41.4003C69.8052 43.9443 70.2372 44.4723 72.3972 44.4723ZM80.792 46.4883V34.9683H83.552V37.0563H83.6C84.104 35.4723 84.944 34.7763 86.96 34.7763H87.104C89.624 34.7763 90.152 35.6403 90.152 38.3523C90.152 38.6403 90.152 39.0963 90.128 39.7203H87.704V39.0243C87.704 37.5603 87.416 37.1763 85.928 37.1763H85.712C84.32 37.1763 83.648 37.7763 83.648 40.0323V46.4883H80.792ZM103.228 46.6803C99.1002 46.6803 98.0682 45.5523 98.0682 41.4003V40.1283C98.0682 35.8323 99.2922 34.7763 103.204 34.7763H103.636C107.62 34.7763 108.7 35.7363 108.7 39.6723V41.3283H100.828V41.8323C100.828 44.1363 101.212 44.5683 103.42 44.5683H103.756C105.724 44.5683 106.156 44.2323 106.156 42.8883V42.6723H108.748V42.9363C108.748 45.8163 107.38 46.6803 103.804 46.6803H103.228ZM100.804 39.5763H106.084V39.1923C106.084 37.2243 105.748 36.7443 103.588 36.7443H103.372C101.188 36.7443 100.828 37.1523 100.804 39.5763ZM111.418 46.4883V34.9683H114.226V36.8163H114.25C114.802 35.4483 115.786 34.7763 117.946 34.7763H118.162C121.378 34.7763 122.266 35.7603 122.266 39.3123V46.4883H119.41V39.7683C119.41 37.4883 119.074 37.0083 117.082 37.0083H116.842C114.994 37.0083 114.274 37.5843 114.274 39.7683V46.4883H111.418ZM129.501 46.6803C126.405 46.6803 125.685 45.8643 125.685 42.0243V37.0563H124.101V34.9683H125.685V31.9683H128.493V34.9683H133.869V37.0563H128.493V41.7363C128.493 44.2083 128.709 44.4243 129.957 44.4243H130.221C131.517 44.4243 131.685 44.0883 131.685 42.0723V41.3763H133.989V42.5283C133.989 45.8163 133.149 46.6803 129.957 46.6803H129.501ZM136.273 46.4883V30.1683H139.129V36.8163H139.153C139.705 35.4483 140.665 34.7763 142.801 34.7763H143.017C146.209 34.7763 147.121 35.7363 147.121 39.3123V46.4883H144.265V39.7683C144.265 37.4643 143.929 37.0083 141.937 37.0083H141.697C139.801 37.0083 139.129 37.5843 139.129 39.7683V46.4883H136.273ZM154.02 46.6803C150.852 46.6803 149.94 45.6723 149.94 42.0723V34.9683H152.796V41.6403C152.796 44.0163 153.108 44.4723 155.124 44.4723H155.34C157.212 44.4723 157.932 43.9683 157.932 41.6643V34.9683H160.788V46.4883H157.98V44.6163H157.956C157.428 46.0083 156.396 46.6803 154.212 46.6803H154.02ZM168.337 46.6803C164.113 46.6803 163.345 45.9123 163.345 43.4163V42.9363H165.961V43.1283C165.961 44.3763 166.249 44.6403 168.337 44.6403H168.841C170.713 44.6403 171.049 44.3763 171.049 43.2723V43.1043C171.049 42.0723 170.785 41.7123 167.761 41.4963C164.233 41.2563 163.489 40.5123 163.489 38.2323V37.9683C163.489 35.6163 164.497 34.7763 167.953 34.7763H168.409C172.537 34.7763 173.305 35.4483 173.305 38.0163V38.3043H170.761V38.1603C170.761 37.0563 170.473 36.7683 168.625 36.7683H168.265C166.417 36.7683 166.129 37.0323 166.129 37.9923V38.2083C166.129 39.0243 166.441 39.3123 168.793 39.4323C172.873 39.7443 173.713 40.4643 173.713 42.8163V43.1763C173.713 45.8883 172.585 46.6803 168.937 46.6803H168.337ZM176.274 32.7123V30.1683H179.13V32.7123H176.274ZM176.274 46.4883V34.9683H179.13V46.4883H176.274ZM185.763 46.6803C182.619 46.6803 181.779 45.9123 181.779 43.1763V42.6723C181.779 40.0323 182.883 39.2883 185.859 39.2883H186.075C188.019 39.2883 188.883 39.5763 189.387 40.2963H189.459V39.3363C189.459 37.1043 189.267 36.7683 187.131 36.7683H186.867C185.115 36.7683 184.707 37.0803 184.707 38.0403V38.3523H182.115V38.1123C182.115 35.3523 183.267 34.7763 187.011 34.7763H187.395C191.499 34.7763 192.147 35.4963 192.147 39.8643V46.4883H189.459V45.2643H189.411C188.883 46.2723 188.019 46.6803 186.099 46.6803H185.763ZM186.843 44.6403H187.083C189.003 44.6403 189.483 44.3523 189.483 43.0803V42.6963C189.483 41.3763 189.051 41.1363 186.963 41.1363H186.723C184.803 41.1363 184.419 41.4243 184.419 42.6963V43.0803C184.419 44.3523 184.803 44.6403 186.843 44.6403ZM199.643 46.6803C195.419 46.6803 194.651 45.9123 194.651 43.4163V42.9363H197.267V43.1283C197.267 44.3763 197.555 44.6403 199.643 44.6403H200.147C202.019 44.6403 202.355 44.3763 202.355 43.2723V43.1043C202.355 42.0723 202.091 41.7123 199.067 41.4963C195.539 41.2563 194.795 40.5123 194.795 38.2323V37.9683C194.795 35.6163 195.803 34.7763 199.259 34.7763H199.715C203.843 34.7763 204.611 35.4483 204.611 38.0163V38.3043H202.067V38.1603C202.067 37.0563 201.779 36.7683 199.931 36.7683H199.571C197.723 36.7683 197.435 37.0323 197.435 37.9923V38.2083C197.435 39.0243 197.747 39.3123 200.099 39.4323C204.179 39.7443 205.019 40.4643 205.019 42.8163V43.1763C205.019 45.8883 203.891 46.6803 200.243 46.6803H199.643ZM211.852 46.6803C208.756 46.6803 208.036 45.8643 208.036 42.0243V37.0563H206.452V34.9683H208.036V31.9683H210.844V34.9683H216.22V37.0563H210.844V41.7363C210.844 44.2083 211.06 44.4243 212.308 44.4243H212.572C213.868 44.4243 214.036 44.0883 214.036 42.0723V41.3763H216.34V42.5283C216.34 45.8163 215.5 46.6803 212.308 46.6803H211.852ZM223.185 46.6803C218.961 46.6803 218.193 45.9123 218.193 43.4163V42.9363H220.809V43.1283C220.809 44.3763 221.097 44.6403 223.185 44.6403H223.689C225.561 44.6403 225.897 44.3763 225.897 43.2723V43.1043C225.897 42.0723 225.633 41.7123 222.609 41.4963C219.081 41.2563 218.337 40.5123 218.337 38.2323V37.9683C218.337 35.6163 219.345 34.7763 222.801 34.7763H223.257C227.385 34.7763 228.153 35.4483 228.153 38.0163V38.3043H225.609V38.1603C225.609 37.0563 225.321 36.7683 223.473 36.7683H223.113C221.265 36.7683 220.977 37.0323 220.977 37.9923V38.2083C220.977 39.0243 221.289 39.3123 223.641 39.4323C227.721 39.7443 228.561 40.4643 228.561 42.8163V43.1763C228.561 45.8883 227.433 46.6803 223.785 46.6803H223.185ZM230.619 49.8723V48.2883C231.771 48.2883 232.035 47.9523 232.035 46.8963V46.4883H231.075V43.2483H234.027V46.5123C234.027 49.1283 233.235 49.8723 230.619 49.8723ZM249.683 46.6803C247.643 46.6803 246.683 46.2723 246.059 44.9523H246.011V46.4883H243.251V30.1683H246.107V36.4083H246.131C246.683 35.1843 247.691 34.7763 249.611 34.7763H249.971C253.331 34.7763 254.267 35.8563 254.267 40.2243V41.1603C254.267 45.4803 253.331 46.6803 249.923 46.6803H249.683ZM248.579 44.4723H248.915C250.979 44.4723 251.411 43.9443 251.411 41.3043V40.1043C251.411 37.4883 250.979 36.9603 248.915 36.9603H248.579C246.491 36.9603 246.011 37.4403 246.011 40.0323V41.4003C246.011 43.9203 246.467 44.4723 248.579 44.4723ZM258.816 50.6643C258.336 50.6643 257.784 50.6403 257.328 50.5923V48.4323C257.64 48.4563 258.096 48.4803 258.264 48.4803C259.704 48.4803 260.304 48.0483 260.952 46.1043H259.392L255.696 34.9683H258.648L261.48 44.1603H261.576L264.192 34.9683H267.12L263.928 45.1443C262.44 49.7523 261.456 50.6643 258.816 50.6643ZM279.943 46.6803C275.815 46.6803 274.783 45.5523 274.783 41.4003V40.1283C274.783 35.8323 276.007 34.7763 279.919 34.7763H280.351C284.335 34.7763 285.415 35.7363 285.415 39.6723V41.3283H277.543V41.8323C277.543 44.1363 277.927 44.5683 280.135 44.5683H280.471C282.439 44.5683 282.871 44.2323 282.871 42.8883V42.6723H285.463V42.9363C285.463 45.8163 284.095 46.6803 280.519 46.6803H279.943ZM277.519 39.5763H282.799V39.1923C282.799 37.2243 282.463 36.7443 280.303 36.7443H280.087C277.903 36.7443 277.543 37.1523 277.519 39.5763ZM288.133 46.4883V34.9683H290.941V36.8163H290.965C291.517 35.4483 292.501 34.7763 294.661 34.7763H294.877C298.093 34.7763 298.981 35.7603 298.981 39.3123V46.4883H296.125V39.7683C296.125 37.4883 295.789 37.0083 293.797 37.0083H293.557C291.709 37.0083 290.989 37.5843 290.989 39.7683V46.4883H288.133ZM306.216 46.6803C303.12 46.6803 302.4 45.8643 302.4 42.0243V37.0563H300.816V34.9683H302.4V31.9683H305.208V34.9683H310.584V37.0563H305.208V41.7363C305.208 44.2083 305.424 44.4243 306.672 44.4243H306.936C308.232 44.4243 308.4 44.0883 308.4 42.0723V41.3763H310.704V42.5283C310.704 45.8163 309.864 46.6803 306.672 46.6803H306.216ZM312.988 46.4883V30.1683H315.844V36.8163H315.868C316.42 35.4483 317.38 34.7763 319.516 34.7763H319.732C322.924 34.7763 323.836 35.7363 323.836 39.3123V46.4883H320.98V39.7683C320.98 37.4643 320.644 37.0083 318.652 37.0083H318.412C316.516 37.0083 315.844 37.5843 315.844 39.7683V46.4883H312.988ZM330.735 46.6803C327.567 46.6803 326.655 45.6723 326.655 42.0723V34.9683H329.511V41.6403C329.511 44.0163 329.823 44.4723 331.839 44.4723H332.055C333.927 44.4723 334.647 43.9683 334.647 41.6643V34.9683H337.503V46.4883H334.695V44.6163H334.671C334.143 46.0083 333.111 46.6803 330.927 46.6803H330.735ZM345.052 46.6803C340.828 46.6803 340.06 45.9123 340.06 43.4163V42.9363H342.676V43.1283C342.676 44.3763 342.964 44.6403 345.052 44.6403H345.556C347.428 44.6403 347.764 44.3763 347.764 43.2723V43.1043C347.764 42.0723 347.5 41.7123 344.476 41.4963C340.948 41.2563 340.204 40.5123 340.204 38.2323V37.9683C340.204 35.6163 341.212 34.7763 344.668 34.7763H345.124C349.252 34.7763 350.02 35.4483 350.02 38.0163V38.3043H347.476V38.1603C347.476 37.0563 347.188 36.7683 345.34 36.7683H344.98C343.132 36.7683 342.844 37.0323 342.844 37.9923V38.2083C342.844 39.0243 343.156 39.3123 345.508 39.4323C349.588 39.7443 350.428 40.4643 350.428 42.8163V43.1763C350.428 45.8883 349.3 46.6803 345.652 46.6803H345.052ZM352.989 32.7123V30.1683H355.845V32.7123H352.989ZM352.989 46.4883V34.9683H355.845V46.4883H352.989ZM362.478 46.6803C359.334 46.6803 358.494 45.9123 358.494 43.1763V42.6723C358.494 40.0323 359.598 39.2883 362.574 39.2883H362.79C364.734 39.2883 365.598 39.5763 366.102 40.2963H366.174V39.3363C366.174 37.1043 365.982 36.7683 363.846 36.7683H363.582C361.83 36.7683 361.422 37.0803 361.422 38.0403V38.3523H358.83V38.1123C358.83 35.3523 359.982 34.7763 363.726 34.7763H364.11C368.214 34.7763 368.862 35.4963 368.862 39.8643V46.4883H366.174V45.2643H366.126C365.598 46.2723 364.734 46.6803 362.814 46.6803H362.478ZM363.558 44.6403H363.798C365.718 44.6403 366.198 44.3523 366.198 43.0803V42.6963C366.198 41.3763 365.766 41.1363 363.678 41.1363H363.438C361.518 41.1363 361.134 41.4243 361.134 42.6963V43.0803C361.134 44.3523 361.518 44.6403 363.558 44.6403ZM376.358 46.6803C372.134 46.6803 371.366 45.9123 371.366 43.4163V42.9363H373.982V43.1283C373.982 44.3763 374.27 44.6403 376.358 44.6403H376.862C378.734 44.6403 379.07 44.3763 379.07 43.2723V43.1043C379.07 42.0723 378.806 41.7123 375.782 41.4963C372.254 41.2563 371.51 40.5123 371.51 38.2323V37.9683C371.51 35.6163 372.518 34.7763 375.974 34.7763H376.43C380.558 34.7763 381.326 35.4483 381.326 38.0163V38.3043H378.782V38.1603C378.782 37.0563 378.494 36.7683 376.646 36.7683H376.286C374.438 36.7683 374.15 37.0323 374.15 37.9923V38.2083C374.15 39.0243 374.462 39.3123 376.814 39.4323C380.894 39.7443 381.734 40.4643 381.734 42.8163V43.1763C381.734 45.8883 380.606 46.6803 376.958 46.6803H376.358ZM388.567 46.6803C385.471 46.6803 384.751 45.8643 384.751 42.0243V37.0563H383.167V34.9683H384.751V31.9683H387.559V34.9683H392.935V37.0563H387.559V41.7363C387.559 44.2083 387.775 44.4243 389.023 44.4243H389.287C390.583 44.4243 390.751 44.0883 390.751 42.0723V41.3763H393.055V42.5283C393.055 45.8163 392.215 46.6803 389.023 46.6803H388.567ZM399.9 46.6803C395.676 46.6803 394.908 45.9123 394.908 43.4163V42.9363H397.524V43.1283C397.524 44.3763 397.812 44.6403 399.9 44.6403H400.404C402.276 44.6403 402.612 44.3763 402.612 43.2723V43.1043C402.612 42.0723 402.348 41.7123 399.324 41.4963C395.796 41.2563 395.052 40.5123 395.052 38.2323V37.9683C395.052 35.6163 396.06 34.7763 399.516 34.7763H399.972C404.1 34.7763 404.868 35.4483 404.868 38.0163V38.3043H402.324V38.1603C402.324 37.0563 402.036 36.7683 400.188 36.7683H399.828C397.98 36.7683 397.692 37.0323 397.692 37.9923V38.2083C397.692 39.0243 398.004 39.3123 400.356 39.4323C404.436 39.7443 405.276 40.4643 405.276 42.8163V43.1763C405.276 45.8883 404.148 46.6803 400.5 46.6803H399.9Z" fill="#00A1E4"/>
</svg>
