<svg width="284" height="71" viewBox="0 0 284 71" fill="none" xmlns="http://www.w3.org/2000/svg">
<path d="M54.2701 35.3836C54.2701 52.0143 49.7348 65.4961 44.1404 65.4961C38.5459 65.4961 34.0106 52.0143 34.0106 35.3836C34.0106 18.7529 38.5459 5.27102 44.1404 5.27102C49.7348 5.27102 54.2701 18.7529 54.2701 35.3836Z" fill="white"/>
<path d="M121.892 0C125.252 0 127.645 0.663288 129.072 1.98986C130.528 3.28821 131.256 5.60266 131.256 8.93321C131.256 10.2033 131.186 11.29 131.046 12.1932C130.906 13.0964 130.626 13.8867 130.206 14.5641C129.786 15.2133 129.296 15.7072 128.737 16.0459C128.177 16.3564 127.001 16.808 125.21 17.4007C127.169 17.6547 128.611 18.1628 129.534 18.9249C130.458 19.6587 130.92 20.9571 130.92 22.8199V28.2391H122.27V25.5295C122.27 24.1465 122.144 23.0457 121.892 22.2272C121.669 21.4087 120.563 20.9994 118.575 20.9994H104.341V28.2391H95.8176V0H121.892ZM118.323 14.1407C120.255 14.1407 121.459 13.9008 121.934 13.421C122.41 12.9412 122.648 11.8686 122.648 10.2033C122.648 9.27191 122.55 8.5804 122.354 8.1288C122.186 7.6772 121.808 7.36673 121.221 7.19738C120.661 7.02803 120.199 6.92924 119.835 6.90102C119.471 6.87279 119.037 6.85868 118.533 6.85868H104.341V14.1407H118.323Z" fill="black"/>
<path d="M137.249 5.33453V0H144.513V5.33453H137.249ZM137.249 28.2391V8.4675H144.513V28.2391H137.249Z" fill="black"/>
<path d="M171.021 28.2391V23.963C170.545 25.8259 169.524 27.0819 167.956 27.7311C166.416 28.352 164.513 28.6625 162.246 28.6625C159.894 28.6625 157.837 28.5214 156.073 28.2391C154.31 27.9851 152.966 27.4206 152.042 26.5456C151.119 25.6706 150.531 24.6404 150.279 23.455C150.055 22.2695 149.943 20.8865 149.943 19.3059V17.8664C149.943 15.9754 150.069 14.3948 150.321 13.1246C150.601 11.8263 151.273 10.7961 152.336 10.034C153.4 9.24369 154.758 8.72153 156.409 8.4675C158.089 8.18525 159.852 8.04413 161.7 8.04413C164.611 8.04413 166.682 8.34049 167.914 8.93321C169.146 9.49771 170.181 10.4009 171.021 11.6428V0H178.117V28.2391H171.021ZM164.975 23.201C167.27 23.201 168.838 22.9469 169.678 22.4389C170.545 21.9308 170.979 20.6466 170.979 18.5862C170.979 16.3564 170.615 14.9593 169.888 14.3948C169.16 13.802 167.578 13.5057 165.143 13.5057H163.547C162.484 13.5057 161.518 13.5621 160.65 13.675C159.81 13.7879 159.139 14.0278 158.635 14.3948C158.131 14.7617 157.809 15.2415 157.669 15.8342C157.529 16.427 157.459 17.1749 157.459 18.0781C157.459 20.2232 157.781 21.6204 158.425 22.2695C159.069 22.9187 160.454 23.2433 162.582 23.2433L164.975 23.201Z" fill="black"/>
<path d="M198.763 28.6625L191.751 28.4085C188.392 28.4085 186.097 27.5476 184.865 25.8259C183.662 24.1042 183.06 21.4228 183.06 17.7818C183.06 14.4512 183.704 12.0239 184.991 10.4997C186.279 8.94733 188.518 8.17114 191.709 8.17114L198.596 8.04413C200.667 8.04413 202.388 8.15703 203.76 8.38283C205.132 8.60863 206.307 9.13079 207.287 9.94932C208.267 10.7678 208.911 11.7839 209.219 12.9976C209.554 14.2113 209.722 15.5943 209.722 17.1467C209.722 17.4854 209.708 17.8664 209.68 18.2898C209.68 18.7132 209.68 19.193 209.68 19.7293H190.45C190.45 21.2817 190.73 22.3824 191.29 23.0316C191.849 23.6526 192.885 23.963 194.397 23.963L198.512 24.0477C199.435 24.0477 200.205 23.9913 200.821 23.8784C201.437 23.7655 201.843 23.5679 202.039 23.2856C202.262 23.0034 202.402 22.4953 202.458 21.7615H209.68C209.68 24.7251 208.729 26.6162 206.825 27.4347C204.95 28.2532 202.262 28.6625 198.763 28.6625ZM195.32 12.4472C193.781 12.4472 192.577 12.6166 191.709 12.9553C190.842 13.2658 190.408 14.0702 190.408 15.3685L190.45 15.9189H202.5C202.5 14.4794 202.151 13.548 201.451 13.1246C200.751 12.673 199.617 12.4472 198.05 12.4472H195.32Z" fill="black"/>
<path d="M122.396 42.3375C125.196 42.3375 127.337 42.8738 128.821 43.9463C130.304 45.0189 131.046 46.91 131.046 49.6196C131.046 50.805 130.934 51.8211 130.71 52.6679C130.514 53.4864 130.136 54.1356 129.576 54.6154C129.044 55.0952 128.541 55.4198 128.065 55.5891C127.617 55.7585 126.973 55.9561 126.133 56.1819C128.401 56.5488 129.968 57.1274 130.836 57.9177C131.704 58.708 132.138 60.218 132.138 62.4478C132.138 65.5808 131.382 67.7259 129.87 68.8831C128.387 70.0121 126.035 70.5766 122.816 70.5766H95.8176V42.3375H122.396ZM122.438 50.8897C122.438 49.93 122.158 49.295 121.599 48.9845C121.067 48.674 120.269 48.5188 119.205 48.5188H104.341V53.4299H119.037C120.157 53.4299 120.997 53.2747 121.557 52.9642C122.144 52.6537 122.438 51.9622 122.438 50.8897ZM123.572 61.4317C123.572 60.6696 123.32 60.0769 122.816 59.6535C122.34 59.2302 121.389 59.0185 119.961 59.0185H104.341V64.1837H119.835C120.815 64.1837 121.683 64.0849 122.438 63.8873C123.194 63.6615 123.572 62.843 123.572 61.4317Z" fill="black"/>
<path d="M157.515 70.5766V66.5122C157.067 68.2904 156.017 69.49 154.366 70.1109C152.742 70.7036 150.811 71 148.572 71C144.933 71 142.245 70.3649 140.51 69.0948C138.774 67.7965 137.906 65.3691 137.906 61.8128V50.805H145.17V61.1354C145.17 63.0264 145.632 64.2401 146.556 64.7764C147.48 65.2844 148.977 65.5385 151.049 65.5385C153.316 65.5385 154.954 65.1715 155.961 64.4377C156.997 63.6756 157.515 62.222 157.515 60.0769V50.805H164.779V70.5766H157.515Z" fill="black"/>
<path d="M170.494 47.672V42.3375H177.758V47.672H170.494ZM170.494 70.5766V50.805H177.758V70.5766H170.494Z" fill="black"/>
<path d="M183.524 70.5766V42.3375H190.788V70.5766H183.524Z" fill="black"/>
<path d="M217.295 70.5766V66.3005C216.82 68.1634 215.798 69.4194 214.23 70.0686C212.691 70.6895 210.787 71 208.52 71C206.169 71 204.111 70.8589 202.348 70.5766C200.584 70.3226 199.24 69.7581 198.317 68.8831C197.393 68.0081 196.805 66.9779 196.553 65.7925C196.329 64.607 196.217 63.224 196.217 61.6434V60.2039C196.217 58.3129 196.343 56.7323 196.595 55.4621C196.875 54.1638 197.547 53.1336 198.611 52.3715C199.674 51.5812 201.032 51.059 202.683 50.805C204.363 50.5228 206.127 50.3816 207.974 50.3816C210.885 50.3816 212.957 50.678 214.188 51.2707C215.42 51.8352 216.456 52.7384 217.295 53.9803V42.3375H224.392V70.5766H217.295ZM211.249 65.5385C213.544 65.5385 215.112 65.2844 215.952 64.7764C216.82 64.2683 217.253 62.9841 217.253 60.9237C217.253 58.6939 216.89 57.2968 216.162 56.7323C215.434 56.1395 213.852 55.8432 211.417 55.8432H209.822C208.758 55.8432 207.792 55.8996 206.924 56.0125C206.085 56.1254 205.413 56.3653 204.909 56.7323C204.405 57.0992 204.083 57.579 203.943 58.1717C203.803 58.7645 203.733 59.5124 203.733 60.4156C203.733 62.5607 204.055 63.9579 204.699 64.607C205.343 65.2562 206.728 65.5808 208.856 65.5808L211.249 65.5385Z" fill="black"/>
<path d="M245.038 71L238.026 70.746C234.667 70.746 232.371 69.8851 231.139 68.1634C229.936 66.4417 229.334 63.7603 229.334 60.1193C229.334 56.7887 229.978 54.3614 231.265 52.8372C232.553 51.2848 234.792 50.5086 237.984 50.5086L244.87 50.3816C246.941 50.3816 248.663 50.4945 250.034 50.7203C251.406 50.9461 252.582 51.4683 253.561 52.2868C254.541 53.1053 255.185 54.1214 255.493 55.3351C255.829 56.5488 255.997 57.9318 255.997 59.4842C255.997 59.8229 255.983 60.2039 255.955 60.6273C255.955 61.0507 255.955 61.5305 255.955 62.0668H236.724C236.724 63.6192 237.004 64.7199 237.564 65.3691C238.124 65.9901 239.159 66.3005 240.671 66.3005L244.786 66.3852C245.709 66.3852 246.479 66.3288 247.095 66.2159C247.711 66.103 248.117 65.9054 248.313 65.6231C248.537 65.3409 248.677 64.8328 248.733 64.099H255.955C255.955 67.0626 255.003 68.9537 253.099 69.7722C251.224 70.5907 248.537 71 245.038 71ZM241.595 54.7847C240.055 54.7847 238.851 54.9541 237.984 55.2928C237.116 55.6033 236.682 56.4077 236.682 57.706L236.724 58.2564H248.775C248.775 56.8169 248.425 55.8855 247.725 55.4621C247.025 55.0105 245.891 54.7847 244.324 54.7847H241.595Z" fill="black"/>
<path d="M268.338 54.7424C268.87 53.0489 269.78 51.9058 271.068 51.3131C272.383 50.6921 274.035 50.3816 276.022 50.3816C279.045 50.3816 281.131 50.9179 282.278 51.9905C283.426 53.063 284 55.0952 284 58.0871V59.3572H277.24C277.212 59.2725 277.198 59.1173 277.198 58.8915C277.086 57.5649 276.736 56.7323 276.148 56.3936C275.588 56.0266 274.539 55.8432 272.999 55.8432C271.236 55.8432 270.018 56.323 269.346 57.2826C268.674 58.2141 268.338 59.6394 268.338 61.5587V70.5766H261.074V50.805H268.338V54.7424Z" fill="black"/>
<path d="M18.6694 3.5246H37.8394V5.27102H18.6694V3.5246Z" fill="white"/>
<path d="M69.6887 47.5446L57.1273 58.2463C55.7751 62.3746 54.1062 65.6757 52.3032 67.8195L69.6887 47.5446Z" fill="#00A1E4"/>
<path d="M68.0734 45.1018L59.3628 48.9405C59.1726 50.0839 58.9602 51.1967 58.7278 52.2752L68.0734 45.1018Z" fill="#00A1E4"/>
<path d="M59.9682 44.5146L71.1704 38.8441L60.2156 41.8184C60.1468 42.7299 60.0641 43.6291 59.9682 44.5146Z" fill="#00A1E4"/>
<path d="M69.6887 23.1167L57.1273 12.415C55.7751 8.28668 54.1062 4.98556 52.3032 2.84181L69.6887 23.1167Z" fill="#00A1E4"/>
<path d="M68.0734 25.5595L59.3628 21.7208C59.1726 20.5774 58.9602 19.4646 58.7278 18.3861L68.0734 25.5595Z" fill="#00A1E4"/>
<path d="M59.9682 26.1467L71.1704 31.8172L60.2156 28.8429C60.1468 27.9314 60.0641 27.0322 59.9682 26.1467Z" fill="#00A1E4"/>
<path d="M60.4133 38.1363C60.4431 37.2107 60.4584 36.275 60.4584 35.3307C60.4584 34.3863 60.4431 33.4506 60.4133 32.525L54.1351 31.492C54.1962 32.7409 54.228 34.0233 54.228 35.3307C54.228 36.638 54.1962 37.9204 54.1351 39.1693L60.4133 38.1363Z" fill="#00A1E4"/>
<path d="M69.6887 36.6102C70.1502 36.4939 71.0733 36.2612 71.0733 35.3306C71.0733 34.4001 70.1502 34.1674 69.6887 34.0511L60.4133 32.525C60.4431 33.4506 60.4584 34.3863 60.4584 35.3307C60.4584 36.275 60.4431 37.2107 60.4133 38.1363L69.6887 36.6102Z" fill="#00A1E4"/>
<path d="M41.5363 35.3307C41.5363 43.1041 43.5509 49.4058 46.0361 49.4058C46.1526 49.4058 46.268 49.3919 46.3822 49.3648C48.7057 48.8119 50.5359 42.7398 50.5359 35.3307C50.5359 27.9215 48.7057 21.8494 46.3822 21.2965C46.268 21.2694 46.1526 21.2555 46.0361 21.2555C43.5509 21.2555 41.5363 27.5572 41.5363 35.3307Z" fill="#00A1E4"/>
<path d="M46.0361 49.4058C43.5509 49.4058 41.5363 43.1041 41.5363 35.3307C41.5363 27.5572 43.5509 21.2555 46.0361 21.2555C46.1526 21.2555 46.268 21.2694 46.3822 21.2965L42.0252 20.2086C41.0006 24.2854 40.3825 29.5643 40.3825 35.3307C40.3825 41.097 41.0006 46.3759 42.0252 50.4527L46.3822 49.3648C46.268 49.3919 46.1526 49.4058 46.0361 49.4058Z" fill="#00A1E4"/>
<path fill-rule="evenodd" clip-rule="evenodd" d="M19.2682 70.5766C12.9598 70.5766 7.84575 54.7965 7.84575 35.3307C7.84575 15.8648 12.9598 0.0846787 19.2682 0.0846784L47.6514 0.0846772C49.1653 0.0846771 50.6901 0.993438 52.1334 2.6438L52.3032 2.84181C54.1062 4.98556 55.7751 8.28668 57.1273 12.415C57.7288 14.2514 58.2676 16.2514 58.7278 18.3861C58.9602 19.4646 59.1726 20.5774 59.3628 21.7208C59.6006 23.1507 59.8038 24.6285 59.9682 26.1467C60.0641 27.0322 60.1468 27.9314 60.2156 28.8429L53.7866 27.0974C52.8005 18.2466 50.2706 11.9497 47.3053 11.9497C45.1893 11.9497 43.295 15.156 42.0252 20.2086C41.0006 24.2854 40.3825 29.5643 40.3825 35.3307C40.3825 41.097 41.0006 46.3759 42.0252 50.4527C43.295 55.5053 45.1893 58.7116 47.3053 58.7116C50.2706 58.7116 52.8005 52.4147 53.7866 43.5639L60.2156 41.8184C60.1468 42.7299 60.0641 43.6291 59.9682 44.5146C59.8038 46.0328 59.6006 47.5106 59.3628 48.9405C59.1726 50.0839 58.9602 51.1967 58.7278 52.2752C58.2676 54.4099 57.7288 56.41 57.1273 58.2463C55.7751 62.3746 54.1062 65.6757 52.3032 67.8195L52.1334 68.0175C50.6901 69.6679 49.1653 70.5766 47.6514 70.5766H19.2682ZM44.19 65.2257C38.6462 65.2257 34.1521 51.8413 34.1521 35.3307C34.1521 18.82 38.6462 5.43556 44.19 5.43556C46.5011 5.43556 48.6297 7.76155 50.3264 11.6704C49.5101 10.8827 48.5048 10.3211 47.3053 10.3211C45.5626 10.3211 44.2301 11.5063 43.2909 12.848C42.3211 14.2333 41.5136 16.1322 40.8623 18.332C39.5535 22.7525 38.7672 28.762 38.7672 35.3307C38.7672 41.2024 39.3955 46.6194 40.4594 50.8528C41.115 53.4614 41.9579 55.7096 42.9817 57.3457C43.9578 58.9056 45.382 60.3402 47.3053 60.3402C48.5085 60.3402 49.5217 59.7668 50.3256 58.9929C48.629 62.9005 46.5007 65.2257 44.19 65.2257ZM37.0366 3.57438L19.499 3.57438C19.0529 3.57438 18.6913 3.93894 18.6913 4.38864C18.6913 4.83835 19.0529 5.20291 19.499 5.20291L37.0366 5.20291C37.4826 5.2029 37.8442 4.83835 37.8442 4.38864C37.8442 3.93894 37.4826 3.57438 37.0366 3.57438Z" fill="#00A1E4"/>
<path d="M0 35.3307C4.20539e-07 45.0314 3.04775 52.6628 6.80734 52.6628H8.14686C7.21705 47.5109 6.69196 41.6005 6.69196 35.3307C6.69196 28.8712 7.24928 22.7933 8.23232 17.5332H6.80734C3.04775 17.5332 -4.20539e-07 25.6299 0 35.3307Z" fill="#00A1E4"/>
</svg>
