<svg width="459" height="45" viewBox="0 0 459 45" fill="none" xmlns="http://www.w3.org/2000/svg">
<path d="M1.95503e-05 43.5195V-0.000469208H34.112C48.448 -0.000469208 51.968 3.19953 51.968 13.2475V14.7835C51.968 21.5675 49.92 24.9595 44.352 26.2395V26.4955C50.56 27.4555 51.968 29.1835 51.968 36.8635V43.5195H39.168V39.9995C39.168 32.3195 37.76 31.4235 25.728 31.4235H12.8V43.5195H1.95503e-05ZM12.8 21.9515H28.928C37.824 21.9515 38.912 21.1195 38.912 16.1275V15.3595C38.912 10.4315 37.76 9.59953 28.928 9.59953H12.8V21.9515ZM60.1175 9.02353V-0.000469208H72.0215V9.02353H60.1175ZM60.1175 43.5195V12.7995H72.0215V43.5195H60.1175ZM96.9435 44.0315C82.4155 44.0315 79.1515 41.3435 79.1515 28.4795V27.6475C79.1515 14.7835 82.8635 12.2875 96.9435 12.2875H98.2235C103.856 12.2875 107.824 13.5035 110 16.8315H110.128V-0.000469208H122.032V43.5195H110.512V39.4875H110.384C107.696 43.2635 103.856 44.0315 97.6475 44.0315H96.9435ZM99.6315 35.3275H101.744C109.168 35.3275 110.32 34.3675 110.32 28.4795V27.6475C110.32 21.7595 109.168 20.7995 101.744 20.7995H99.6315C92.2075 20.7995 91.0555 21.7595 91.0555 27.6475V28.4795C91.0555 34.3675 92.2075 35.3275 99.6315 35.3275ZM149.248 44.0315C133.632 44.0315 129.152 41.8555 129.152 28.6075V27.8395C129.152 14.6555 134.528 12.2875 147.776 12.2875H149.952C163.648 12.2875 169.152 14.3995 169.152 25.3435V30.5275H140.8V31.1675C140.8 35.9675 142.208 36.6075 149.312 36.6075H150.592C157.056 36.6075 158.144 35.9675 158.144 33.4075V33.1515H169.28V33.8555C169.28 41.9835 163.456 44.0315 151.552 44.0315H149.248ZM140.8 24.2555H157.888V23.6795C157.888 20.2875 156.736 19.2635 149.504 19.2635H148.928C142.016 19.2635 140.8 20.2875 140.8 24.2555ZM176.75 43.5195V-0.000469208H212.142C225.454 -0.000469208 229.55 2.68753 229.55 10.8795C229.55 17.0235 227.31 19.5835 223.47 20.7355V20.9275C228.27 21.7595 230.958 24.8955 230.958 30.9755C230.958 40.8315 226.094 43.5195 215.406 43.5195H176.75ZM189.55 17.1515H212.846C215.534 17.1515 217.07 16.1915 217.07 13.1195C217.07 9.85553 215.534 8.95953 212.846 8.95953H189.55V17.1515ZM189.55 34.2395H213.166C217.07 34.2395 218.286 32.8315 218.286 29.8235C218.286 26.6875 217.006 25.4715 213.166 25.4715H189.55V34.2395ZM253.74 44.0315C240.428 44.0315 237.356 40.8955 237.356 28.9275V12.7995H249.26V27.9035C249.26 33.7915 250.348 35.1355 257.452 35.1355H258.156C265.26 35.1355 267.116 33.2795 267.116 27.7755V12.7995H279.02V43.5195H267.116V38.4635H266.988C264.876 42.4955 261.164 44.0315 254.38 44.0315H253.74ZM287.368 9.02353V-0.000469208H299.272V9.02353H287.368ZM287.368 43.5195V12.7995H299.272V43.5195H287.368ZM307.618 43.5195V-0.000469208H319.522V43.5195H307.618ZM344.444 44.0315C329.916 44.0315 326.652 41.3435 326.652 28.4795V27.6475C326.652 14.7835 330.364 12.2875 344.444 12.2875H345.724C351.356 12.2875 355.324 13.5035 357.5 16.8315H357.628V-0.000469208H369.532V43.5195H358.012V39.4875H357.884C355.196 43.2635 351.356 44.0315 345.148 44.0315H344.444ZM347.132 35.3275H349.244C356.668 35.3275 357.82 34.3675 357.82 28.4795V27.6475C357.82 21.7595 356.668 20.7995 349.244 20.7995H347.132C339.708 20.7995 338.556 21.7595 338.556 27.6475V28.4795C338.556 34.3675 339.708 35.3275 347.132 35.3275ZM396.748 44.0315C381.132 44.0315 376.652 41.8555 376.652 28.6075V27.8395C376.652 14.6555 382.028 12.2875 395.276 12.2875H397.452C411.148 12.2875 416.652 14.3995 416.652 25.3435V30.5275H388.3V31.1675C388.3 35.9675 389.708 36.6075 396.812 36.6075H398.092C404.556 36.6075 405.644 35.9675 405.644 33.4075V33.1515H416.78V33.8555C416.78 41.9835 410.956 44.0315 399.052 44.0315H396.748ZM388.3 24.2555H405.388V23.6795C405.388 20.2875 404.236 19.2635 397.004 19.2635H396.428C389.516 19.2635 388.3 20.2875 388.3 24.2555ZM423.93 43.5195V12.7995H435.642V19.0075H435.834C437.306 14.8475 440.378 12.2875 447.354 12.2875H447.994C456.57 12.2875 458.49 15.4235 458.49 23.1675C458.49 23.9995 458.49 25.6635 458.362 26.8155H447.674V24.8315C447.674 21.6955 446.522 20.9915 442.362 20.9915H441.85C437.37 20.9915 435.834 22.7835 435.834 28.2235V43.5195H423.93Z" fill="black"/>
</svg>
