<svg width="111" height="41" viewBox="0 0 111 41" fill="none" xmlns="http://www.w3.org/2000/svg">
<path d="M0 3.99999C0 1.79085 1.79086 0 4 0H107C109.209 0 111 1.79086 111 4V36.6213C111 38.8304 109.209 40.6213 107 40.6213H4C1.79086 40.6213 0 38.8304 0 36.6213V3.99999Z" fill="#33C2FF"/>
<path d="M88.4679 28.3972V17.3444H89.7433V18.4497H89.7773C90.1174 17.5484 90.8825 17.2424 92.3619 17.2424H92.583C94.9126 17.2424 95.6437 18.0076 95.6437 21.1874V21.6125C95.6437 24.8093 94.9126 25.6085 92.566 25.6085H92.3959C90.8655 25.6085 90.1854 25.3024 89.8113 24.3331H89.7773V28.3972H88.4679ZM91.9538 24.5542H92.1919C93.9093 24.5542 94.3344 24.0951 94.3344 21.6465V21.1704C94.3344 18.7387 93.9093 18.2626 92.1919 18.2626H91.9538C90.2194 18.2626 89.7433 18.7047 89.7433 20.9323V21.8845C89.7433 24.0271 90.1854 24.5542 91.9538 24.5542Z" fill="white"/>
<path d="M81.5474 25.6085C77.9085 25.6085 77.1093 25.0304 77.1093 21.7486V13.9436H78.5207V21.6295C78.5207 24.1292 79.0308 24.4353 81.5134 24.4353H81.8365C84.3191 24.4353 84.8632 24.1292 84.8632 21.6295V13.9436H86.2746V21.7486C86.2746 25.0304 85.4414 25.6085 81.8025 25.6085H81.5474Z" fill="white"/>
<path d="M63.7586 25.5064V17.3444H65.0509V18.6537H65.0679C65.425 17.7355 66.0541 17.2424 67.7375 17.2424H67.8906C70.1692 17.2424 70.7643 17.8715 70.7643 20.3712V25.5064H69.455V20.7112C69.455 18.6707 69.1829 18.2966 67.4655 18.2966H67.2954C65.7481 18.2966 65.0679 18.7557 65.0679 20.7112V25.5064H63.7586Z" fill="white"/>
<path d="M57.7349 28.4992C55.2693 28.4992 54.5891 28.0571 54.5891 26.0846V25.8805H55.8134V26.0336C55.8134 27.1899 56.1025 27.4619 57.7349 27.4619H58.024C60.0475 27.4619 60.2686 27.2409 60.2686 25.0303V23.874H60.2345C59.8775 24.7412 59.2143 25.0983 57.6159 25.0983H57.4288C55.2013 25.0983 54.4361 24.3501 54.4361 21.4254V21.0513C54.4361 18.0246 55.2013 17.2424 57.4288 17.2424H57.6329C59.1463 17.2424 59.8605 17.5484 60.2686 18.4667H60.2856V17.3444H61.5609V24.9453C61.5609 28.0061 60.8977 28.4992 58.024 28.4992H57.7349ZM57.8199 24.0781H58.041C59.8945 24.0781 60.2856 23.585 60.2856 21.4254V21.0343C60.2856 18.7557 59.8775 18.2626 58.058 18.2626H57.8199C56.1535 18.2626 55.7284 18.7557 55.7284 21.0343V21.4254C55.7284 23.585 56.1875 24.0781 57.8199 24.0781Z" fill="white"/>
<path d="M51.2046 15.44V13.9436H52.5139V15.44H51.2046ZM51.2046 25.5065V17.3445H52.5139V25.5065H51.2046Z" fill="white"/>
<path d="M44.8768 25.6076C41.1189 25.6076 40.5067 25.0465 40.5067 22.3598V21.8837H41.833V22.2918C41.833 24.0943 42.2581 24.4854 44.7918 24.4854H45.1149C47.3764 24.4854 47.8185 24.1453 47.8185 22.3938V22.1558C47.8185 20.7274 47.5295 20.3873 44.6557 20.1663C41.3229 19.9112 40.6257 19.231 40.6257 17.1225V16.8504C40.6257 14.6059 41.4249 13.8407 44.4687 13.8407H44.8088C48.2947 13.8407 48.9408 14.5379 48.9408 17.0205V17.3946H47.5975V17.0885C47.5975 15.3711 47.2064 14.946 44.8768 14.946H44.5877C42.4282 14.946 42.0031 15.3031 42.0031 16.8674V17.1055C42.0031 18.3978 42.3602 18.7549 45.1149 18.976C48.5497 19.248 49.2129 19.9112 49.2129 22.0707V22.3428C49.2129 24.9445 48.3797 25.6076 45.2679 25.6076H44.8768Z" fill="white"/>
<path d="M11.9704 15.2767L20 20L28.0296 15.2763C28.3211 15.1049 28.5 14.792 28.5 14.4539C28.5 13.9269 28.0728 13.4996 27.5457 13.4996L12.4542 13.5C11.9272 13.5 11.5 13.9272 11.5 14.4542C11.5 14.7924 11.679 15.1053 11.9704 15.2767Z" fill="white"/>
<path d="M11.5 17.5925L20 22.5L28.5 17.5921V26.4997C28.5 27.0519 28.0523 27.4996 27.5 27.4997L12.5 27.5C11.9477 27.5 11.5 27.0523 11.5 26.5V17.5925Z" fill="white"/>
</svg>
