<svg width="609" height="63" viewBox="0 0 609 63" fill="none" xmlns="http://www.w3.org/2000/svg">
<path d="M5.28 21.9844L1.96695e-06 0.224375H4.16L8 18.6244H8.128L12.384 0.224375H17.216L21.504 18.6244H21.6L25.408 0.224375H29.44L24.192 21.9844H18.976L14.784 3.93637H14.72L10.464 21.9844H5.28ZM37.4718 22.2404C31.9678 22.2404 30.5918 20.7364 30.5918 15.2004V13.5044C30.5918 7.77637 32.2238 6.36837 37.4398 6.36837H38.0158C43.3278 6.36837 44.7678 7.64837 44.7678 12.8964V15.1044H34.2718V15.7764C34.2718 18.8484 34.7838 19.4244 37.7278 19.4244H38.1758C40.7998 19.4244 41.3758 18.9764 41.3758 17.1844V16.8964H44.8318V17.2484C44.8318 21.0884 43.0078 22.2404 38.2398 22.2404H37.4718ZM34.2398 12.7684H41.2798V12.2564C41.2798 9.63237 40.8318 8.99237 37.9518 8.99237H37.6638C34.7518 8.99237 34.2718 9.53637 34.2398 12.7684ZM62.7918 22.2404C57.1598 22.2404 56.1358 21.2164 56.1358 17.8884V17.2484H59.6238V17.5044C59.6238 19.1684 60.0078 19.5204 62.7918 19.5204H63.4638C65.9598 19.5204 66.4078 19.1684 66.4078 17.6964V17.4724C66.4078 16.0964 66.0558 15.6164 62.0238 15.3284C57.3198 15.0084 56.3278 14.0164 56.3278 10.9764V10.6244C56.3278 7.48837 57.6718 6.36837 62.2798 6.36837H62.8878C68.3918 6.36837 69.4158 7.26437 69.4158 10.6884V11.0724H66.0238V10.8804C66.0238 9.40837 65.6398 9.02437 63.1758 9.02437H62.6958C60.2318 9.02437 59.8478 9.37637 59.8478 10.6564V10.9444C59.8478 12.0324 60.2638 12.4164 63.3998 12.5764C68.8398 12.9924 69.9598 13.9524 69.9598 17.0884V17.5684C69.9598 21.1844 68.4558 22.2404 63.5918 22.2404H62.7918ZM73.3755 3.61637V0.224375H77.1835V3.61637H73.3755ZM73.3755 21.9844V6.62437H77.1835V21.9844H73.3755ZM81.1955 21.9844V6.62437H84.9395V9.08837H84.9715C85.5795 7.42437 86.9875 6.36837 89.6115 6.36837H89.8995C92.9075 6.36837 94.1235 7.26437 94.6035 9.34437H94.6355C95.3075 7.52037 96.7155 6.36837 99.4995 6.36837H99.7875C103.852 6.36837 104.908 7.74437 104.908 12.3844V21.9844H101.1V13.0244C101.1 9.98437 100.652 9.34437 98.2835 9.34437H97.9955C95.8195 9.34437 94.9555 10.1444 94.9555 12.8644V21.9844H91.1475V13.0244C91.1475 9.95237 90.6035 9.34437 88.4595 9.34437H88.1715C85.8355 9.34437 85.0035 10.1124 85.0035 13.0244V21.9844H81.1955ZM108.797 27.4244V6.62437H112.477V8.54437H112.541C113.341 6.84837 114.781 6.36837 117.341 6.36837H117.757C122.301 6.36837 123.485 7.93637 123.485 13.6324V14.8804C123.485 20.6084 122.269 22.2404 117.693 22.2404H117.309C114.813 22.2404 113.469 21.7924 112.669 19.9364H112.605V27.4244H108.797ZM115.901 19.2964H116.349C119.101 19.2964 119.677 18.5924 119.677 15.0724V13.4724C119.677 9.95237 119.101 9.28037 116.349 9.28037H115.901C113.117 9.28037 112.477 9.92037 112.477 13.3764V15.2004C112.477 18.5604 113.085 19.2964 115.901 19.2964ZM127.054 21.9844V0.224375H130.862V21.9844H127.054ZM134.874 3.61637V0.224375H138.682V3.61637H134.874ZM134.874 21.9844V6.62437H138.682V21.9844H134.874ZM143.302 21.9844V9.37637H141.254V6.62437H143.302V5.34437C143.302 1.34437 144.582 0.00037384 148.294 0.00037384C149.126 0.00037384 150.022 0.064373 150.758 0.160374V2.91237C150.342 2.84837 149.83 2.81637 149.35 2.81637C147.494 2.81637 147.11 3.26437 147.11 5.53638V6.62437H150.438V9.37637H147.11V21.9844H143.302ZM155.104 27.5524C154.464 27.5524 153.728 27.5204 153.12 27.4564V24.5764C153.536 24.6084 154.144 24.6404 154.368 24.6404C156.288 24.6404 157.088 24.0644 157.952 21.4724H155.872L150.944 6.62437H154.88L158.656 18.8804H158.784L162.272 6.62437H166.176L161.92 20.1924C159.936 26.3364 158.624 27.5524 155.104 27.5524ZM176.873 21.9844V0.224375H180.681V9.08837H180.713C181.449 7.26437 182.729 6.36837 185.577 6.36837H185.865C190.121 6.36837 191.337 7.64837 191.337 12.4164V21.9844H187.529V13.0244C187.529 9.95237 187.081 9.34437 184.425 9.34437H184.105C181.577 9.34437 180.681 10.1124 180.681 13.0244V21.9844H176.873ZM201.943 22.2404C196.279 22.2404 194.807 20.6724 194.807 15.2004V13.3764C194.807 7.96837 196.311 6.36837 201.943 6.36837H202.583C208.183 6.36837 209.655 7.96837 209.655 13.3764V15.2004C209.655 20.6724 208.215 22.2404 202.583 22.2404H201.943ZM202.039 19.2964H202.455C205.367 19.2964 205.911 18.5924 205.911 15.2004V13.3764C205.911 9.95237 205.367 9.28037 202.455 9.28037H202.039C199.127 9.28037 198.583 9.95237 198.583 13.3764V15.2004C198.583 18.5924 199.159 19.2964 202.039 19.2964ZM216.08 21.9844L211.728 6.62437H215.728L218.704 19.1684H218.832L221.904 6.62437H226.224L229.392 19.1684H229.52L232.432 6.62437H236.272L231.952 21.9844H226.832L224.08 10.2084H223.984L221.2 21.9844H216.08ZM253.522 22.2404C248.018 22.2404 246.642 20.7364 246.642 15.2004V13.5044C246.642 7.77637 248.274 6.36837 253.49 6.36837H254.066C259.378 6.36837 260.818 7.64837 260.818 12.8964V15.1044H250.322V15.7764C250.322 18.8484 250.834 19.4244 253.778 19.4244H254.226C256.85 19.4244 257.426 18.9764 257.426 17.1844V16.8964H260.882V17.2484C260.882 21.0884 259.058 22.2404 254.29 22.2404H253.522ZM250.29 12.7684H257.33V12.2564C257.33 9.63237 256.882 8.99237 254.002 8.99237H253.714C250.802 8.99237 250.322 9.53637 250.29 12.7684ZM264.442 21.9844V6.62437H268.186V9.08837H268.218C268.954 7.26437 270.266 6.36837 273.146 6.36837H273.434C277.722 6.36837 278.906 7.68037 278.906 12.4164V21.9844H275.098V13.0244C275.098 9.98437 274.65 9.34437 271.994 9.34437H271.674C269.21 9.34437 268.25 10.1124 268.25 13.0244V21.9844H264.442ZM288.552 22.2404C284.424 22.2404 283.464 21.1524 283.464 16.0324V9.40837H281.352V6.62437H283.464V2.62437H287.208V6.62437H294.376V9.40837H287.208V15.6484C287.208 18.9444 287.496 19.2324 289.16 19.2324H289.512C291.24 19.2324 291.464 18.7844 291.464 16.0964V15.1684H294.536V16.7044C294.536 21.0884 293.416 22.2404 289.16 22.2404H288.552ZM297.582 21.9844V0.224375H301.39V9.08837H301.422C302.158 7.26437 303.438 6.36837 306.286 6.36837H306.574C310.83 6.36837 312.046 7.64837 312.046 12.4164V21.9844H308.238V13.0244C308.238 9.95237 307.79 9.34437 305.134 9.34437H304.814C302.286 9.34437 301.39 10.1124 301.39 13.0244V21.9844H297.582ZM321.243 22.2404C317.019 22.2404 315.803 20.8964 315.803 16.0964V6.62437H319.611V15.5204C319.611 18.6884 320.027 19.2964 322.715 19.2964H323.003C325.499 19.2964 326.459 18.6244 326.459 15.5524V6.62437H330.267V21.9844H326.523V19.4884H326.491C325.787 21.3444 324.411 22.2404 321.499 22.2404H321.243ZM340.333 22.2404C334.701 22.2404 333.677 21.2164 333.677 17.8884V17.2484H337.165V17.5044C337.165 19.1684 337.549 19.5204 340.333 19.5204H341.005C343.501 19.5204 343.949 19.1684 343.949 17.6964V17.4724C343.949 16.0964 343.597 15.6164 339.565 15.3284C334.861 15.0084 333.869 14.0164 333.869 10.9764V10.6244C333.869 7.48837 335.213 6.36837 339.821 6.36837H340.429C345.933 6.36837 346.957 7.26437 346.957 10.6884V11.0724H343.565V10.8804C343.565 9.40837 343.181 9.02437 340.717 9.02437H340.237C337.773 9.02437 337.389 9.37637 337.389 10.6564V10.9444C337.389 12.0324 337.805 12.4164 340.941 12.5764C346.381 12.9924 347.501 13.9524 347.501 17.0884V17.5684C347.501 21.1844 345.997 22.2404 341.133 22.2404H340.333ZM350.917 3.61637V0.224375H354.725V3.61637H350.917ZM350.917 21.9844V6.62437H354.725V21.9844H350.917ZM363.569 22.2404C359.377 22.2404 358.257 21.2164 358.257 17.5684V16.8964C358.257 13.3764 359.729 12.3844 363.697 12.3844H363.985C366.577 12.3844 367.729 12.7684 368.401 13.7284H368.497V12.4484C368.497 9.47237 368.241 9.02437 365.393 9.02437H365.041C362.705 9.02437 362.161 9.44037 362.161 10.7204V11.1364H358.705V10.8164C358.705 7.13637 360.241 6.36837 365.233 6.36837H365.745C371.217 6.36837 372.081 7.32837 372.081 13.1524V21.9844H368.497V20.3524H368.433C367.729 21.6964 366.577 22.2404 364.017 22.2404H363.569ZM365.009 19.5204H365.329C367.889 19.5204 368.529 19.1364 368.529 17.4404V16.9284C368.529 15.1684 367.953 14.8484 365.169 14.8484H364.849C362.289 14.8484 361.777 15.2324 361.777 16.9284V17.4404C361.777 19.1364 362.289 19.5204 365.009 19.5204ZM382.074 22.2404C376.442 22.2404 375.418 21.2164 375.418 17.8884V17.2484H378.906V17.5044C378.906 19.1684 379.29 19.5204 382.074 19.5204H382.746C385.242 19.5204 385.69 19.1684 385.69 17.6964V17.4724C385.69 16.0964 385.338 15.6164 381.306 15.3284C376.602 15.0084 375.61 14.0164 375.61 10.9764V10.6244C375.61 7.48837 376.954 6.36837 381.562 6.36837H382.17C387.674 6.36837 388.698 7.26437 388.698 10.6884V11.0724H385.306V10.8804C385.306 9.40837 384.922 9.02437 382.458 9.02437H381.978C379.514 9.02437 379.13 9.37637 379.13 10.6564V10.9444C379.13 12.0324 379.546 12.4164 382.682 12.5764C388.122 12.9924 389.242 13.9524 389.242 17.0884V17.5684C389.242 21.1844 387.738 22.2404 382.874 22.2404H382.074ZM398.354 22.2404C394.226 22.2404 393.266 21.1524 393.266 16.0324V9.40837H391.154V6.62437H393.266V2.62437H397.01V6.62437H404.178V9.40837H397.01V15.6484C397.01 18.9444 397.298 19.2324 398.962 19.2324H399.314C401.042 19.2324 401.266 18.7844 401.266 16.0964V15.1684H404.338V16.7044C404.338 21.0884 403.218 22.2404 398.962 22.2404H398.354ZM413.464 22.2404C407.832 22.2404 406.808 21.2164 406.808 17.8884V17.2484H410.296V17.5044C410.296 19.1684 410.68 19.5204 413.464 19.5204H414.136C416.632 19.5204 417.08 19.1684 417.08 17.6964V17.4724C417.08 16.0964 416.728 15.6164 412.696 15.3284C407.992 15.0084 407 14.0164 407 10.9764V10.6244C407 7.48837 408.344 6.36837 412.952 6.36837H413.56C419.064 6.36837 420.088 7.26437 420.088 10.6884V11.0724H416.696V10.8804C416.696 9.40837 416.312 9.02437 413.848 9.02437H413.368C410.904 9.02437 410.52 9.37637 410.52 10.6564V10.9444C410.52 12.0324 410.936 12.4164 414.072 12.5764C419.512 12.9924 420.632 13.9524 420.632 17.0884V17.5684C420.632 21.1844 419.128 22.2404 414.264 22.2404H413.464ZM437.68 22.2404C433.104 22.2404 431.92 20.5764 431.92 14.8804V13.6324C431.92 7.93637 433.104 6.36837 437.616 6.36837H438.096C440.56 6.36837 442 6.88037 442.736 8.54437H442.768V0.224375H446.576V21.9844H442.896V19.9364H442.832C442 21.7924 440.56 22.2404 438.032 22.2404H437.68ZM439.024 19.2964H439.472C442.32 19.2964 442.896 18.6244 442.896 15.2004V13.3764C442.896 9.98437 442.288 9.28037 439.472 9.28037H439.024C436.304 9.28037 435.728 9.95237 435.728 13.4724V15.0724C435.728 18.5924 436.304 19.2964 439.024 19.2964ZM456.994 22.2404C451.49 22.2404 450.114 20.7364 450.114 15.2004V13.5044C450.114 7.77637 451.746 6.36837 456.962 6.36837H457.538C462.85 6.36837 464.29 7.64837 464.29 12.8964V15.1044H453.794V15.7764C453.794 18.8484 454.306 19.4244 457.25 19.4244H457.698C460.322 19.4244 460.898 18.9764 460.898 17.1844V16.8964H464.354V17.2484C464.354 21.0884 462.53 22.2404 457.762 22.2404H456.994ZM453.762 12.7684H460.802V12.2564C460.802 9.63237 460.354 8.99237 457.474 8.99237H457.186C454.274 8.99237 453.794 9.53637 453.762 12.7684ZM473.994 22.2404C468.362 22.2404 467.338 21.2164 467.338 17.8884V17.2484H470.826V17.5044C470.826 19.1684 471.21 19.5204 473.994 19.5204H474.666C477.162 19.5204 477.61 19.1684 477.61 17.6964V17.4724C477.61 16.0964 477.258 15.6164 473.226 15.3284C468.522 15.0084 467.53 14.0164 467.53 10.9764V10.6244C467.53 7.48837 468.874 6.36837 473.482 6.36837H474.09C479.594 6.36837 480.618 7.26437 480.618 10.6884V11.0724H477.226V10.8804C477.226 9.40837 476.842 9.02437 474.378 9.02437H473.898C471.434 9.02437 471.05 9.37637 471.05 10.6564V10.9444C471.05 12.0324 471.466 12.4164 474.602 12.5764C480.042 12.9924 481.162 13.9524 481.162 17.0884V17.5684C481.162 21.1844 479.658 22.2404 474.794 22.2404H473.994ZM484.578 3.61637V0.224375H488.386V3.61637H484.578ZM484.578 21.9844V6.62437H488.386V21.9844H484.578ZM498.766 27.6804C493.71 27.6804 492.302 26.8804 492.302 23.1044V22.7204H495.79V22.9444C495.79 24.3844 496.238 24.8004 498.734 24.8004H499.278C502.446 24.8004 502.798 24.4484 502.798 21.1844V19.0084H502.702C501.966 20.6404 500.59 21.2164 497.934 21.2164H497.614C493.262 21.2164 491.95 20.0004 491.95 14.4004V13.3444C491.95 7.77637 493.262 6.36837 497.614 6.36837H497.998C500.494 6.36837 501.966 6.84837 502.798 8.57637H502.83V6.62437H506.51V20.9604C506.51 26.6564 505.038 27.6804 499.31 27.6804H498.766ZM498.99 18.4004H499.438C502.254 18.4004 502.83 17.6964 502.83 14.4964V13.2164C502.83 9.95237 502.254 9.28037 499.438 9.28037H499.022C496.334 9.28037 495.726 9.92037 495.726 13.2164V14.4964C495.726 17.7284 496.334 18.4004 498.99 18.4004ZM510.53 21.9844V6.62437H514.274V9.08837H514.306C515.043 7.26437 516.354 6.36837 519.234 6.36837H519.523C523.811 6.36837 524.995 7.68037 524.995 12.4164V21.9844H521.187V13.0244C521.187 9.98437 520.738 9.34437 518.082 9.34437H517.762C515.299 9.34437 514.338 10.1124 514.338 13.0244V21.9844H510.53ZM542.96 22.2404C538.832 22.2404 537.872 21.1524 537.872 16.0324V9.40837H535.76V6.62437H537.872V2.62437H541.616V6.62437H548.784V9.40837H541.616V15.6484C541.616 18.9444 541.904 19.2324 543.568 19.2324H543.92C545.648 19.2324 545.872 18.7844 545.872 16.0964V15.1684H548.944V16.7044C548.944 21.0884 547.824 22.2404 543.568 22.2404H542.96ZM551.991 21.9844V0.224375H555.799V9.08837H555.831C556.567 7.26437 557.847 6.36837 560.695 6.36837H560.983C565.239 6.36837 566.455 7.64837 566.455 12.4164V21.9844H562.647V13.0244C562.647 9.95237 562.199 9.34437 559.543 9.34437H559.223C556.695 9.34437 555.799 10.1124 555.799 13.0244V21.9844H551.991ZM576.804 22.2404C571.3 22.2404 569.924 20.7364 569.924 15.2004V13.5044C569.924 7.77637 571.556 6.36837 576.772 6.36837H577.348C582.66 6.36837 584.1 7.64837 584.1 12.8964V15.1044H573.604V15.7764C573.604 18.8484 574.116 19.4244 577.06 19.4244H577.508C580.132 19.4244 580.708 18.9764 580.708 17.1844V16.8964H584.164V17.2484C584.164 21.0884 582.34 22.2404 577.572 22.2404H576.804ZM573.572 12.7684H580.612V12.2564C580.612 9.63237 580.164 8.99237 577.284 8.99237H576.996C574.084 8.99237 573.604 9.53637 573.572 12.7684ZM587.724 3.61637V0.224375H591.532V3.61637H587.724ZM587.724 21.9844V6.62437H591.532V21.9844H587.724ZM595.544 21.9844V6.62437H599.224V9.40837H599.288C599.96 7.29637 601.08 6.36837 603.768 6.36837H603.96C607.32 6.36837 608.024 7.52037 608.024 11.1364C608.024 11.5204 608.024 12.1284 607.992 12.9604H604.76V12.0324C604.76 10.0804 604.376 9.56837 602.392 9.56837H602.104C600.248 9.56837 599.352 10.3684 599.352 13.3764V21.9844H595.544ZM6.72 62.2404C2.144 62.2404 0.960002 60.5764 0.960002 54.8804V53.6324C0.960002 47.9364 2.144 46.3684 6.656 46.3684H7.136C9.6 46.3684 11.04 46.8804 11.776 48.5444H11.808V40.2244H15.616V61.9844H11.936V59.9364H11.872C11.04 61.7924 9.6 62.2404 7.072 62.2404H6.72ZM8.064 59.2964H8.512C11.36 59.2964 11.936 58.6244 11.936 55.2004V53.3764C11.936 49.9844 11.328 49.2804 8.512 49.2804H8.064C5.344 49.2804 4.768 49.9524 4.768 53.4724V55.0724C4.768 58.5924 5.344 59.2964 8.064 59.2964ZM19.6343 61.9844V46.6244H23.3143V49.4084H23.3783C24.0503 47.2964 25.1703 46.3684 27.8583 46.3684H28.0503C31.4103 46.3684 32.1143 47.5204 32.1143 51.1364C32.1143 51.5204 32.1143 52.1284 32.0823 52.9604H28.8503V52.0324C28.8503 50.0804 28.4663 49.5684 26.4823 49.5684H26.1943C24.3383 49.5684 23.4423 50.3684 23.4423 53.3764V61.9844H19.6343ZM41.2293 62.2404C35.7253 62.2404 34.3493 60.7364 34.3493 55.2004V53.5044C34.3493 47.7764 35.9813 46.3684 41.1973 46.3684H41.7733C47.0853 46.3684 48.5253 47.6484 48.5253 52.8964V55.1044H38.0293V55.7764C38.0293 58.8484 38.5413 59.4244 41.4853 59.4244H41.9333C44.5573 59.4244 45.1333 58.9764 45.1333 57.1844V56.8964H48.5893V57.2484C48.5893 61.0884 46.7653 62.2404 41.9973 62.2404H41.2293ZM37.9973 52.7684H45.0373V52.2564C45.0373 49.6324 44.5893 48.9924 41.7093 48.9924H41.4213C38.5093 48.9924 38.0293 49.5364 37.9973 52.7684ZM56.9813 62.2404C52.7893 62.2404 51.6693 61.2164 51.6693 57.5684V56.8964C51.6693 53.3764 53.1413 52.3844 57.1093 52.3844H57.3973C59.9893 52.3844 61.1413 52.7684 61.8133 53.7284H61.9093V52.4484C61.9093 49.4724 61.6533 49.0244 58.8053 49.0244H58.4533C56.1173 49.0244 55.5733 49.4404 55.5733 50.7204V51.1364H52.1173V50.8164C52.1173 47.1364 53.6533 46.3684 58.6453 46.3684H59.1573C64.6293 46.3684 65.4933 47.3284 65.4933 53.1524V61.9844H61.9093V60.3524H61.8453C61.1413 61.6964 59.9893 62.2404 57.4293 62.2404H56.9813ZM58.4213 59.5204H58.7413C61.3013 59.5204 61.9413 59.1364 61.9413 57.4404V56.9284C61.9413 55.1684 61.3653 54.8484 58.5813 54.8484H58.2613C55.7013 54.8484 55.1893 55.2324 55.1893 56.9284V57.4404C55.1893 59.1364 55.7013 59.5204 58.4213 59.5204ZM69.4068 61.9844V46.6244H73.1508V49.0884H73.1828C73.7908 47.4244 75.1988 46.3684 77.8228 46.3684H78.1108C81.1188 46.3684 82.3348 47.2644 82.8148 49.3444H82.8468C83.5188 47.5204 84.9268 46.3684 87.7108 46.3684H87.9988C92.0628 46.3684 93.1188 47.7444 93.1188 52.3844V61.9844H89.3108V53.0244C89.3108 49.9844 88.8628 49.3444 86.4948 49.3444H86.2068C84.0308 49.3444 83.1668 50.1444 83.1668 52.8644V61.9844H79.3588V53.0244C79.3588 49.9524 78.8148 49.3444 76.6708 49.3444H76.3828C74.0468 49.3444 73.2148 50.1124 73.2148 53.0244V61.9844H69.4068ZM111.76 62.2404C106.288 62.2404 104.848 60.7684 104.848 55.2004V53.3764C104.848 47.7764 106.352 46.3684 111.856 46.3684H112.432C117.584 46.3684 118.928 47.6804 118.928 51.5844V52.1924H115.44V51.8084C115.44 49.8244 114.864 49.2804 112.464 49.2804H111.984C109.168 49.2804 108.656 49.9204 108.656 53.3764V55.2004C108.656 58.6564 109.232 59.2964 112.048 59.2964H112.528C114.928 59.2964 115.472 58.6884 115.472 56.7044V56.2884H118.96V56.8324C118.96 60.8964 117.552 62.2404 112.368 62.2404H111.76ZM127.324 62.2404C123.132 62.2404 122.012 61.2164 122.012 57.5684V56.8964C122.012 53.3764 123.484 52.3844 127.452 52.3844H127.74C130.332 52.3844 131.484 52.7684 132.156 53.7284H132.252V52.4484C132.252 49.4724 131.996 49.0244 129.148 49.0244H128.796C126.46 49.0244 125.916 49.4404 125.916 50.7204V51.1364H122.46V50.8164C122.46 47.1364 123.996 46.3684 128.988 46.3684H129.5C134.972 46.3684 135.836 47.3284 135.836 53.1524V61.9844H132.252V60.3524H132.188C131.484 61.6964 130.332 62.2404 127.772 62.2404H127.324ZM128.764 59.5204H129.084C131.644 59.5204 132.284 59.1364 132.284 57.4404V56.9284C132.284 55.1684 131.708 54.8484 128.924 54.8484H128.604C126.044 54.8484 125.532 55.2324 125.532 56.9284V57.4404C125.532 59.1364 126.044 59.5204 128.764 59.5204ZM139.749 61.9844V46.6244H143.429V49.4084H143.493C144.165 47.2964 145.285 46.3684 147.973 46.3684H148.165C151.525 46.3684 152.229 47.5204 152.229 51.1364C152.229 51.5204 152.229 52.1284 152.197 52.9604H148.965V52.0324C148.965 50.0804 148.581 49.5684 146.597 49.5684H146.309C144.453 49.5684 143.557 50.3684 143.557 53.3764V61.9844H139.749ZM152.724 61.9844V57.6644H156.66V61.9844H152.724Z" fill="black"/>
</svg>
