<svg width="465" height="45" viewBox="0 0 465 45" fill="none" xmlns="http://www.w3.org/2000/svg">
<path d="M14.592 43.5195L3.71337e-05 -0.000469208H13.184L22.656 31.9995H22.784L34.176 -0.000469208H46.272L57.664 31.9995H57.792L67.072 -0.000469208H80.256L65.792 43.5195H50.752L40.256 14.7835H40.128L29.696 43.5195H14.592ZM100.716 44.0315C85.0995 44.0315 80.6195 41.8555 80.6195 28.6075V27.8395C80.6195 14.6555 85.9955 12.2875 99.2435 12.2875H101.42C115.116 12.2875 120.62 14.3995 120.62 25.3435V30.5275H92.2675V31.1675C92.2675 35.9675 93.6755 36.6075 100.78 36.6075H102.06C108.524 36.6075 109.612 35.9675 109.612 33.4075V33.1515H120.748V33.8555C120.748 41.9835 114.924 44.0315 103.02 44.0315H100.716ZM92.2675 24.2555H109.356V23.6795C109.356 20.2875 108.204 19.2635 100.972 19.2635H100.396C93.4835 19.2635 92.2675 20.2875 92.2675 24.2555ZM127.898 43.5195V-0.000469208H139.802V43.5195H127.898ZM166.772 44.0315C151.156 44.0315 146.932 41.4075 146.932 28.4795V27.6475C146.932 14.7835 151.156 12.2875 166.772 12.2875H169.652C184.052 12.2875 187.7 15.1035 187.7 23.6155V25.2795H176.308V24.9595C176.308 21.6315 174.644 20.7995 169.268 20.7995H167.156C159.924 20.7995 158.772 21.6315 158.772 27.6475V28.4795C158.772 34.4955 159.988 35.3275 167.156 35.3275H169.268C175.796 35.3275 176.308 34.0475 176.308 30.9115V30.7195H187.7V32.3835C187.7 40.8315 184.244 44.0315 169.652 44.0315H166.772ZM213.205 44.0315C197.461 44.0315 193.557 41.9835 193.557 28.4795V27.6475C193.557 14.1435 197.589 12.2875 213.205 12.2875H216.085C231.829 12.2875 235.733 14.1435 235.733 27.6475V28.4795C235.733 41.9835 231.829 44.0315 216.085 44.0315H213.205ZM213.589 35.3915H215.701C223.125 35.3915 224.085 34.4955 224.085 28.4795V27.6475C224.085 21.6315 223.125 20.7355 215.701 20.7355H213.589C206.165 20.7355 205.205 21.6315 205.205 27.6475V28.4795C205.205 34.4955 206.165 35.3915 213.589 35.3915ZM242.836 43.5195V12.7995H254.74V17.5995H254.868C256.66 14.9115 259.732 12.2875 266.324 12.2875H267.092C274.58 12.2875 278.484 13.9515 280.404 18.6875H280.468C282.196 14.9755 286.164 12.2875 293.204 12.2875H293.972C305.62 12.2875 308.5 15.4875 308.5 27.3915V43.5195H296.596V28.2235C296.596 22.6555 295.188 21.3755 290.452 21.3755H289.748C282.644 21.3755 281.62 23.1035 281.62 28.2875V43.5195H269.716V28.2235C269.716 22.5275 268.116 21.3755 263.572 21.3755H262.868C255.828 21.3755 254.74 23.0395 254.74 28.2875V43.5195H242.836ZM335.403 44.0315C319.787 44.0315 315.307 41.8555 315.307 28.6075V27.8395C315.307 14.6555 320.683 12.2875 333.931 12.2875H336.107C349.803 12.2875 355.307 14.3995 355.307 25.3435V30.5275H326.955V31.1675C326.955 35.9675 328.363 36.6075 335.467 36.6075H336.747C343.211 36.6075 344.299 35.9675 344.299 33.4075V33.1515H355.435V33.8555C355.435 41.9835 349.611 44.0315 337.707 44.0315H335.403ZM326.955 24.2555H344.043V23.6795C344.043 20.2875 342.891 19.2635 335.659 19.2635H335.083C328.171 19.2635 326.955 20.2875 326.955 24.2555ZM400.287 44.0315C389.343 44.0315 386.335 41.0875 386.335 31.8715V20.9275H380.575V12.7995H386.335V4.79953H398.047V12.7995H416.671V20.9275H398.047V29.8235C398.047 34.8155 398.687 35.3915 402.591 35.3915H403.231C407.007 35.3915 407.391 34.6235 407.391 30.9755V30.0155H417.503V32.9595C417.503 41.4075 413.663 44.0315 401.759 44.0315H400.287ZM442.018 44.0315C426.274 44.0315 422.37 41.9835 422.37 28.4795V27.6475C422.37 14.1435 426.402 12.2875 442.018 12.2875H444.898C460.642 12.2875 464.546 14.1435 464.546 27.6475V28.4795C464.546 41.9835 460.642 44.0315 444.898 44.0315H442.018ZM442.402 35.3915H444.514C451.938 35.3915 452.898 34.4955 452.898 28.4795V27.6475C452.898 21.6315 451.938 20.7355 444.514 20.7355H442.402C434.978 20.7355 434.018 21.6315 434.018 27.6475V28.4795C434.018 34.4955 434.978 35.3915 442.402 35.3915Z" fill="black"/>
</svg>
